<?xml version="1.0" encoding="UTF-8" standalone="no"?><svg xmlns="http://www.w3.org/2000/svg" xmlns:xlink="http://www.w3.org/1999/xlink" contentScriptType="application/ecmascript" contentStyleType="text/css" height="719px" preserveAspectRatio="none" style="width:521px;height:719px;background:#FFFFFF;" version="1.1" viewBox="0 0 521 719" width="521px" zoomAndPan="magnify"><defs><filter height="300%" id="fevqdwidi23v8" width="300%" x="-1" y="-1"><feGaussianBlur result="blurOut" stdDeviation="2.0"/><feColorMatrix in="blurOut" result="blurOut2" type="matrix" values="0 0 0 0 0 0 0 0 0 0 0 0 0 0 0 0 0 0 .4 0"/><feOffset dx="4.0" dy="4.0" in="blurOut2" result="blurOut3"/><feBlend in="SourceGraphic" in2="blurOut3" mode="normal"/></filter></defs><g><!--MD5=[0f39e4cb6f03951afbf6d14bd2505654]
class Address--><rect codeLine="1" fill="#FEFECE" filter="url(#fevqdwidi23v8)" height="105.1563" id="Address" style="stroke:#A80036;stroke-width:1.5;" width="115" x="9.1937" y="600"/><ellipse cx="24.1937" cy="618.9688" fill="#ADD1B2" rx="11" ry="11" style="stroke:#A80036;stroke-width:1.0;"/><path d="M26.5375,614.6406 C25.6,614.2031 25.0062,614.0625 24.1312,614.0625 C21.5062,614.0625 19.5062,616.1406 19.5062,618.8594 L19.5062,619.9844 C19.5062,622.5625 21.6156,624.4531 24.5062,624.4531 C25.725,624.4531 26.8812,624.1563 27.6312,623.6094 C28.2093,623.2031 28.5375,622.75 28.5375,622.3594 C28.5375,621.9063 28.1468,621.5156 27.6781,621.5156 C27.4593,621.5156 27.2562,621.5938 27.0687,621.7813 C26.6156,622.2656 26.6156,622.2656 26.4281,622.3594 C26.0062,622.625 25.3187,622.75 24.5531,622.75 C22.5062,622.75 21.2093,621.6563 21.2093,619.9531 L21.2093,618.8594 C21.2093,617.0781 22.4593,615.7656 24.1937,615.7656 C24.7718,615.7656 25.3812,615.9219 25.85,616.1719 C26.3343,616.4531 26.5062,616.6719 26.6,617.0781 C26.6625,617.4844 26.6937,617.6094 26.8343,617.7344 C26.975,617.875 27.2093,617.9844 27.4281,617.9844 C27.6937,617.9844 27.9593,617.8438 28.1312,617.625 C28.2406,617.4688 28.2718,617.2813 28.2718,616.8594 L28.2718,615.4375 C28.2718,615 28.2562,614.875 28.1625,614.7188 C28.0062,614.4531 27.725,614.3125 27.4281,614.3125 C27.1312,614.3125 26.9281,614.4063 26.7093,614.7188 L26.5375,614.6406 Z " fill="#000000"/><text fill="#000000" font-family="sans-serif" font-size="12" font-style="italic" lengthAdjust="spacing" textLength="87" x="36.1937" y="616.1387">«value object»</text><text fill="#000000" font-family="sans-serif" font-size="12" lengthAdjust="spacing" textLength="51" x="54.1937" y="630.1074">Address</text><line style="stroke:#A80036;stroke-width:1.5;" x1="10.1937" x2="123.1937" y1="637.9375" y2="637.9375"/><text fill="#000000" font-family="sans-serif" font-size="11" lengthAdjust="spacing" textLength="78" x="15.1937" y="652.1479">Street : string</text><text fill="#000000" font-family="sans-serif" font-size="11" lengthAdjust="spacing" textLength="60" x="15.1937" y="664.9526">Zip : string</text><text fill="#000000" font-family="sans-serif" font-size="11" lengthAdjust="spacing" textLength="64" x="15.1937" y="677.7573">City : string</text><text fill="#000000" font-family="sans-serif" font-size="11" lengthAdjust="spacing" textLength="86" x="15.1937" y="690.562">Country : string</text><line style="stroke:#A80036;stroke-width:1.5;" x1="10.1937" x2="123.1937" y1="697.1563" y2="697.1563"/><!--MD5=[2ce0c9fb7f55b1e256ab28a8ea6b25ec]
class Customer--><rect codeLine="8" fill="#FEFECE" filter="url(#fevqdwidi23v8)" height="112.0234" id="Customer" style="stroke:#A80036;stroke-width:1.5;" width="115" x="9.1937" y="428"/><ellipse cx="35.4437" cy="444" fill="#ADD1B2" rx="11" ry="11" style="stroke:#A80036;stroke-width:1.0;"/><path d="M37.7875,439.6719 C36.85,439.2344 36.2562,439.0938 35.3812,439.0938 C32.7562,439.0938 30.7562,441.1719 30.7562,443.8906 L30.7562,445.0156 C30.7562,447.5938 32.8656,449.4844 35.7562,449.4844 C36.975,449.4844 38.1312,449.1875 38.8812,448.6406 C39.4593,448.2344 39.7875,447.7813 39.7875,447.3906 C39.7875,446.9375 39.3968,446.5469 38.9281,446.5469 C38.7093,446.5469 38.5062,446.625 38.3187,446.8125 C37.8656,447.2969 37.8656,447.2969 37.6781,447.3906 C37.2562,447.6563 36.5687,447.7813 35.8031,447.7813 C33.7562,447.7813 32.4593,446.6875 32.4593,444.9844 L32.4593,443.8906 C32.4593,442.1094 33.7093,440.7969 35.4437,440.7969 C36.0218,440.7969 36.6312,440.9531 37.1,441.2031 C37.5843,441.4844 37.7562,441.7031 37.85,442.1094 C37.9125,442.5156 37.9437,442.6406 38.0843,442.7656 C38.225,442.9063 38.4593,443.0156 38.6781,443.0156 C38.9437,443.0156 39.2093,442.875 39.3812,442.6563 C39.4906,442.5 39.5218,442.3125 39.5218,441.8906 L39.5218,440.4688 C39.5218,440.0313 39.5062,439.9063 39.4125,439.75 C39.2562,439.4844 38.975,439.3438 38.6781,439.3438 C38.3812,439.3438 38.1781,439.4375 37.9593,439.75 L37.7875,439.6719 Z " fill="#000000"/><text fill="#000000" font-family="sans-serif" font-size="12" lengthAdjust="spacing" textLength="58" x="51.9437" y="448.1543">Customer</text><line style="stroke:#A80036;stroke-width:1.5;" x1="10.1937" x2="123.1937" y1="460" y2="460"/><text fill="#000000" font-family="sans-serif" font-size="11" lengthAdjust="spacing" textLength="35" x="15.1937" y="474.2104">Id : int</text><text fill="#000000" font-family="sans-serif" font-size="11" lengthAdjust="spacing" textLength="98" x="15.1937" y="487.0151">Firstname : string</text><text fill="#000000" font-family="sans-serif" font-size="11" lengthAdjust="spacing" textLength="98" x="15.1937" y="499.8198">Lastname : string</text><text fill="#000000" font-family="sans-serif" font-size="11" lengthAdjust="spacing" textLength="73" x="15.1937" y="512.6245">Email : string</text><text fill="#000000" font-family="sans-serif" font-size="11" lengthAdjust="spacing" textLength="103" x="15.1937" y="525.4292">Address : Address</text><line style="stroke:#A80036;stroke-width:1.5;" x1="10.1937" x2="123.1937" y1="532.0234" y2="532.0234"/><!--MD5=[b4d3d50c0abf08df45181fececb9f04d]
class Store--><rect codeLine="17" fill="#FEFECE" filter="url(#fevqdwidi23v8)" height="73.6094" id="Store" style="stroke:#A80036;stroke-width:1.5;" width="88" x="169.6937" y="447"/><ellipse cx="195.0437" cy="463" fill="#ADD1B2" rx="11" ry="11" style="stroke:#A80036;stroke-width:1.0;"/><path d="M197.3875,458.6719 C196.45,458.2344 195.8562,458.0938 194.9812,458.0938 C192.3562,458.0938 190.3562,460.1719 190.3562,462.8906 L190.3562,464.0156 C190.3562,466.5938 192.4656,468.4844 195.3562,468.4844 C196.575,468.4844 197.7312,468.1875 198.4812,467.6406 C199.0593,467.2344 199.3875,466.7813 199.3875,466.3906 C199.3875,465.9375 198.9968,465.5469 198.5281,465.5469 C198.3093,465.5469 198.1062,465.625 197.9187,465.8125 C197.4656,466.2969 197.4656,466.2969 197.2781,466.3906 C196.8562,466.6563 196.1687,466.7813 195.4031,466.7813 C193.3562,466.7813 192.0593,465.6875 192.0593,463.9844 L192.0593,462.8906 C192.0593,461.1094 193.3093,459.7969 195.0437,459.7969 C195.6218,459.7969 196.2312,459.9531 196.7,460.2031 C197.1843,460.4844 197.3562,460.7031 197.45,461.1094 C197.5125,461.5156 197.5437,461.6406 197.6843,461.7656 C197.825,461.9063 198.0593,462.0156 198.2781,462.0156 C198.5437,462.0156 198.8093,461.875 198.9812,461.6563 C199.0906,461.5 199.1218,461.3125 199.1218,460.8906 L199.1218,459.4688 C199.1218,459.0313 199.1062,458.9063 199.0125,458.75 C198.8562,458.4844 198.575,458.3438 198.2781,458.3438 C197.9812,458.3438 197.7781,458.4375 197.5593,458.75 L197.3875,458.6719 Z " fill="#000000"/><text fill="#000000" font-family="sans-serif" font-size="12" lengthAdjust="spacing" textLength="33" x="211.3437" y="467.1543">Store</text><line style="stroke:#A80036;stroke-width:1.5;" x1="170.6937" x2="256.6937" y1="479" y2="479"/><text fill="#000000" font-family="sans-serif" font-size="11" lengthAdjust="spacing" textLength="35" x="175.6937" y="493.2104">Id : int</text><text fill="#000000" font-family="sans-serif" font-size="11" lengthAdjust="spacing" textLength="76" x="175.6937" y="506.0151">Name : string</text><line style="stroke:#A80036;stroke-width:1.5;" x1="170.6937" x2="256.6937" y1="512.6094" y2="512.6094"/><!--MD5=[72136138052d025cffdce3c22fbd185f]
class Product--><rect codeLine="22" fill="#FEFECE" filter="url(#fevqdwidi23v8)" height="99.2188" id="Product" style="stroke:#A80036;stroke-width:1.5;" width="209" x="298.1937" y="434.5"/><ellipse cx="375.9437" cy="450.5" fill="#ADD1B2" rx="11" ry="11" style="stroke:#A80036;stroke-width:1.0;"/><path d="M378.2875,446.1719 C377.35,445.7344 376.7562,445.5938 375.8812,445.5938 C373.2562,445.5938 371.2562,447.6719 371.2562,450.3906 L371.2562,451.5156 C371.2562,454.0938 373.3656,455.9844 376.2562,455.9844 C377.475,455.9844 378.6312,455.6875 379.3812,455.1406 C379.9593,454.7344 380.2875,454.2813 380.2875,453.8906 C380.2875,453.4375 379.8968,453.0469 379.4281,453.0469 C379.2093,453.0469 379.0062,453.125 378.8187,453.3125 C378.3656,453.7969 378.3656,453.7969 378.1781,453.8906 C377.7562,454.1563 377.0687,454.2813 376.3031,454.2813 C374.2562,454.2813 372.9593,453.1875 372.9593,451.4844 L372.9593,450.3906 C372.9593,448.6094 374.2093,447.2969 375.9437,447.2969 C376.5218,447.2969 377.1312,447.4531 377.6,447.7031 C378.0843,447.9844 378.2562,448.2031 378.35,448.6094 C378.4125,449.0156 378.4437,449.1406 378.5843,449.2656 C378.725,449.4063 378.9593,449.5156 379.1781,449.5156 C379.4437,449.5156 379.7093,449.375 379.8812,449.1563 C379.9906,449 380.0218,448.8125 380.0218,448.3906 L380.0218,446.9688 C380.0218,446.5313 380.0062,446.4063 379.9125,446.25 C379.7562,445.9844 379.475,445.8438 379.1781,445.8438 C378.8812,445.8438 378.6781,445.9375 378.4593,446.25 L378.2875,446.1719 Z " fill="#000000"/><text fill="#000000" font-family="sans-serif" font-size="12" lengthAdjust="spacing" textLength="45" x="396.4437" y="454.6543">Product</text><line style="stroke:#A80036;stroke-width:1.5;" x1="299.1937" x2="506.1937" y1="466.5" y2="466.5"/><text fill="#000000" font-family="sans-serif" font-size="11" lengthAdjust="spacing" textLength="46" x="304.1937" y="480.7104">Ean : int</text><text fill="#000000" font-family="sans-serif" font-size="11" lengthAdjust="spacing" textLength="76" x="304.1937" y="493.5151">Name : string</text><text fill="#000000" font-family="sans-serif" font-size="11" lengthAdjust="spacing" textLength="159" x="304.1937" y="506.3198">ProductCategoryId : int «FK»</text><text fill="#000000" font-family="sans-serif" font-size="11" lengthAdjust="spacing" textLength="197" x="304.1937" y="519.1245">ProductCategory : ProductCategory</text><line style="stroke:#A80036;stroke-width:1.5;" x1="299.1937" x2="506.1937" y1="525.7188" y2="525.7188"/><!--MD5=[a1db4bf20df23ac2cd9366d22a9e2860]
class ProductCategory--><rect codeLine="68" fill="#FEFECE" filter="url(#fevqdwidi23v8)" height="86.4141" id="ProductCategory" style="stroke:#A80036;stroke-width:1.5;" width="148" x="328.6937" y="609.5"/><ellipse cx="350.8937" cy="625.5" fill="#ADD1B2" rx="11" ry="11" style="stroke:#A80036;stroke-width:1.0;"/><path d="M353.2375,621.1719 C352.3,620.7344 351.7062,620.5938 350.8312,620.5938 C348.2062,620.5938 346.2062,622.6719 346.2062,625.3906 L346.2062,626.5156 C346.2062,629.0938 348.3156,630.9844 351.2062,630.9844 C352.425,630.9844 353.5812,630.6875 354.3312,630.1406 C354.9093,629.7344 355.2375,629.2813 355.2375,628.8906 C355.2375,628.4375 354.8468,628.0469 354.3781,628.0469 C354.1593,628.0469 353.9562,628.125 353.7687,628.3125 C353.3156,628.7969 353.3156,628.7969 353.1281,628.8906 C352.7062,629.1563 352.0187,629.2813 351.2531,629.2813 C349.2062,629.2813 347.9093,628.1875 347.9093,626.4844 L347.9093,625.3906 C347.9093,623.6094 349.1593,622.2969 350.8937,622.2969 C351.4718,622.2969 352.0812,622.4531 352.55,622.7031 C353.0343,622.9844 353.2062,623.2031 353.3,623.6094 C353.3625,624.0156 353.3937,624.1406 353.5343,624.2656 C353.675,624.4063 353.9093,624.5156 354.1281,624.5156 C354.3937,624.5156 354.6593,624.375 354.8312,624.1563 C354.9406,624 354.9718,623.8125 354.9718,623.3906 L354.9718,621.9688 C354.9718,621.5313 354.9562,621.4063 354.8625,621.25 C354.7062,620.9844 354.425,620.8438 354.1281,620.8438 C353.8312,620.8438 353.6281,620.9375 353.4093,621.25 L353.2375,621.1719 Z " fill="#000000"/><text fill="#000000" font-family="sans-serif" font-size="12" lengthAdjust="spacing" textLength="100" x="366.4937" y="629.6543">ProductCategory</text><line style="stroke:#A80036;stroke-width:1.5;" x1="329.6937" x2="475.6937" y1="641.5" y2="641.5"/><text fill="#000000" font-family="sans-serif" font-size="11" lengthAdjust="spacing" textLength="35" x="334.6937" y="655.7104">Id : int</text><text fill="#000000" font-family="sans-serif" font-size="11" lengthAdjust="spacing" textLength="76" x="334.6937" y="668.5151">Name : string</text><text fill="#000000" font-family="sans-serif" font-size="11" lengthAdjust="spacing" textLength="136" x="334.6937" y="681.3198">Products : List&lt;Product&gt;</text><line style="stroke:#A80036;stroke-width:1.5;" x1="329.6937" x2="475.6937" y1="687.9141" y2="687.9141"/><!--MD5=[af8ed831b3fe9dbd380fec6c597723ab]
class Offer--><rect codeLine="30" fill="#FEFECE" filter="url(#fevqdwidi23v8)" height="137.6328" id="Offer" style="stroke:#A80036;stroke-width:1.5;" width="144" x="268.6937" y="217.5"/><ellipse cx="320.9437" cy="233.5" fill="#ADD1B2" rx="11" ry="11" style="stroke:#A80036;stroke-width:1.0;"/><path d="M323.2875,229.1719 C322.35,228.7344 321.7562,228.5938 320.8812,228.5938 C318.2562,228.5938 316.2562,230.6719 316.2562,233.3906 L316.2562,234.5156 C316.2562,237.0938 318.3656,238.9844 321.2562,238.9844 C322.475,238.9844 323.6312,238.6875 324.3812,238.1406 C324.9593,237.7344 325.2875,237.2813 325.2875,236.8906 C325.2875,236.4375 324.8968,236.0469 324.4281,236.0469 C324.2093,236.0469 324.0062,236.125 323.8187,236.3125 C323.3656,236.7969 323.3656,236.7969 323.1781,236.8906 C322.7562,237.1563 322.0687,237.2813 321.3031,237.2813 C319.2562,237.2813 317.9593,236.1875 317.9593,234.4844 L317.9593,233.3906 C317.9593,231.6094 319.2093,230.2969 320.9437,230.2969 C321.5218,230.2969 322.1312,230.4531 322.6,230.7031 C323.0843,230.9844 323.2562,231.2031 323.35,231.6094 C323.4125,232.0156 323.4437,232.1406 323.5843,232.2656 C323.725,232.4063 323.9593,232.5156 324.1781,232.5156 C324.4437,232.5156 324.7093,232.375 324.8812,232.1563 C324.9906,232 325.0218,231.8125 325.0218,231.3906 L325.0218,229.9688 C325.0218,229.5313 325.0062,229.4063 324.9125,229.25 C324.7562,228.9844 324.475,228.8438 324.1781,228.8438 C323.8812,228.8438 323.6781,228.9375 323.4593,229.25 L323.2875,229.1719 Z " fill="#000000"/><text fill="#000000" font-family="sans-serif" font-size="12" lengthAdjust="spacing" textLength="31" x="341.4437" y="237.6543">Offer</text><line style="stroke:#A80036;stroke-width:1.5;" x1="269.6937" x2="411.6937" y1="249.5" y2="249.5"/><text fill="#000000" font-family="sans-serif" font-size="11" lengthAdjust="spacing" textLength="35" x="274.6937" y="263.7104">Id : int</text><text fill="#000000" font-family="sans-serif" font-size="11" lengthAdjust="spacing" textLength="118" x="274.6937" y="276.5151">ProductEan : int «FK»</text><text fill="#000000" font-family="sans-serif" font-size="11" lengthAdjust="spacing" textLength="93" x="274.6937" y="289.3198">Product : Product</text><text fill="#000000" font-family="sans-serif" font-size="11" lengthAdjust="spacing" textLength="97" x="274.6937" y="302.1245">StoreId : int «FK»</text><text fill="#000000" font-family="sans-serif" font-size="11" lengthAdjust="spacing" textLength="73" x="274.6937" y="314.9292">Store : Store</text><text fill="#000000" font-family="sans-serif" font-size="11" lengthAdjust="spacing" textLength="83" x="274.6937" y="327.7339">Price : decimal</text><text fill="#000000" font-family="sans-serif" font-size="11" lengthAdjust="spacing" textLength="132" x="274.6937" y="340.5386">LastUpdate : DateTime</text><line style="stroke:#A80036;stroke-width:1.5;" x1="269.6937" x2="411.6937" y1="347.1328" y2="347.1328"/><!--MD5=[cf4d6237fcae255cd2e1656cf84a30e2]
class Order--><rect codeLine="42" fill="#FEFECE" filter="url(#fevqdwidi23v8)" height="163.2422" id="Order" style="stroke:#A80036;stroke-width:1.5;" width="182" x="51.6937" y="205"/><ellipse cx="120.4437" cy="221" fill="#ADD1B2" rx="11" ry="11" style="stroke:#A80036;stroke-width:1.0;"/><path d="M122.7875,216.6719 C121.85,216.2344 121.2562,216.0938 120.3812,216.0938 C117.7562,216.0938 115.7562,218.1719 115.7562,220.8906 L115.7562,222.0156 C115.7562,224.5938 117.8656,226.4844 120.7562,226.4844 C121.975,226.4844 123.1312,226.1875 123.8812,225.6406 C124.4593,225.2344 124.7875,224.7813 124.7875,224.3906 C124.7875,223.9375 124.3968,223.5469 123.9281,223.5469 C123.7093,223.5469 123.5062,223.625 123.3187,223.8125 C122.8656,224.2969 122.8656,224.2969 122.6781,224.3906 C122.2562,224.6563 121.5687,224.7813 120.8031,224.7813 C118.7562,224.7813 117.4593,223.6875 117.4593,221.9844 L117.4593,220.8906 C117.4593,219.1094 118.7093,217.7969 120.4437,217.7969 C121.0218,217.7969 121.6312,217.9531 122.1,218.2031 C122.5843,218.4844 122.7562,218.7031 122.85,219.1094 C122.9125,219.5156 122.9437,219.6406 123.0843,219.7656 C123.225,219.9063 123.4593,220.0156 123.6781,220.0156 C123.9437,220.0156 124.2093,219.875 124.3812,219.6563 C124.4906,219.5 124.5218,219.3125 124.5218,218.8906 L124.5218,217.4688 C124.5218,217.0313 124.5062,216.9063 124.4125,216.75 C124.2562,216.4844 123.975,216.3438 123.6781,216.3438 C123.3812,216.3438 123.1781,216.4375 122.9593,216.75 L122.7875,216.6719 Z " fill="#000000"/><text fill="#000000" font-family="sans-serif" font-size="12" lengthAdjust="spacing" textLength="36" x="140.9437" y="225.1543">Order</text><line style="stroke:#A80036;stroke-width:1.5;" x1="52.6937" x2="232.6937" y1="237" y2="237"/><text fill="#000000" font-family="sans-serif" font-size="11" lengthAdjust="spacing" textLength="35" x="57.6937" y="251.2104">Id : int</text><text fill="#000000" font-family="sans-serif" font-size="11" lengthAdjust="spacing" textLength="128" x="57.6937" y="264.0151">OrderDate : DateTime</text><text fill="#000000" font-family="sans-serif" font-size="11" lengthAdjust="spacing" textLength="152" x="57.6937" y="276.8198">PaymentDate : DateTime?</text><text fill="#000000" font-family="sans-serif" font-size="11" lengthAdjust="spacing" textLength="151" x="57.6937" y="289.6245">DeliveryDate : DateTime?</text><text fill="#000000" font-family="sans-serif" font-size="11" lengthAdjust="spacing" textLength="97" x="57.6937" y="302.4292">StoreId : int «FK»</text><text fill="#000000" font-family="sans-serif" font-size="11" lengthAdjust="spacing" textLength="73" x="57.6937" y="315.2339">Store : Store</text><text fill="#000000" font-family="sans-serif" font-size="11" lengthAdjust="spacing" textLength="121" x="57.6937" y="328.0386">CustomerId : int «FK»</text><text fill="#000000" font-family="sans-serif" font-size="11" lengthAdjust="spacing" textLength="121" x="57.6937" y="340.8433">Customer : Customer</text><text fill="#000000" font-family="sans-serif" font-size="11" lengthAdjust="spacing" textLength="170" x="57.6937" y="353.6479">OrderItems : List&lt;OrderItem&gt;</text><line style="stroke:#A80036;stroke-width:1.5;" x1="52.6937" x2="232.6937" y1="360.2422" y2="360.2422"/><!--MD5=[003718b22fee2486eeba0fa029a176b7]
class OrderItem--><rect codeLine="56" fill="#FEFECE" filter="url(#fevqdwidi23v8)" height="137.6328" id="OrderItem" style="stroke:#A80036;stroke-width:1.5;" width="130" x="326.6937" y="7"/><ellipse cx="357.8937" cy="23" fill="#ADD1B2" rx="11" ry="11" style="stroke:#A80036;stroke-width:1.0;"/><path d="M360.2375,18.6719 C359.3,18.2344 358.7062,18.0938 357.8312,18.0938 C355.2062,18.0938 353.2062,20.1719 353.2062,22.8906 L353.2062,24.0156 C353.2062,26.5938 355.3156,28.4844 358.2062,28.4844 C359.425,28.4844 360.5812,28.1875 361.3312,27.6406 C361.9093,27.2344 362.2375,26.7813 362.2375,26.3906 C362.2375,25.9375 361.8468,25.5469 361.3781,25.5469 C361.1593,25.5469 360.9562,25.625 360.7687,25.8125 C360.3156,26.2969 360.3156,26.2969 360.1281,26.3906 C359.7062,26.6563 359.0187,26.7813 358.2531,26.7813 C356.2062,26.7813 354.9093,25.6875 354.9093,23.9844 L354.9093,22.8906 C354.9093,21.1094 356.1593,19.7969 357.8937,19.7969 C358.4718,19.7969 359.0812,19.9531 359.55,20.2031 C360.0343,20.4844 360.2062,20.7031 360.3,21.1094 C360.3625,21.5156 360.3937,21.6406 360.5343,21.7656 C360.675,21.9063 360.9093,22.0156 361.1281,22.0156 C361.3937,22.0156 361.6593,21.875 361.8312,21.6563 C361.9406,21.5 361.9718,21.3125 361.9718,20.8906 L361.9718,19.4688 C361.9718,19.0313 361.9562,18.9063 361.8625,18.75 C361.7062,18.4844 361.425,18.3438 361.1281,18.3438 C360.8312,18.3438 360.6281,18.4375 360.4093,18.75 L360.2375,18.6719 Z " fill="#000000"/><text fill="#000000" font-family="sans-serif" font-size="12" lengthAdjust="spacing" textLength="62" x="375.4937" y="27.1543">OrderItem</text><line style="stroke:#A80036;stroke-width:1.5;" x1="327.6937" x2="455.6937" y1="39" y2="39"/><text fill="#000000" font-family="sans-serif" font-size="11" lengthAdjust="spacing" textLength="35" x="332.6937" y="53.2104">Id : int</text><text fill="#000000" font-family="sans-serif" font-size="11" lengthAdjust="spacing" textLength="73" x="332.6937" y="66.0151">Quantity : int</text><text fill="#000000" font-family="sans-serif" font-size="11" lengthAdjust="spacing" textLength="118" x="332.6937" y="78.8198">ProductEan : int «FK»</text><text fill="#000000" font-family="sans-serif" font-size="11" lengthAdjust="spacing" textLength="93" x="332.6937" y="91.6245">Product : Product</text><text fill="#000000" font-family="sans-serif" font-size="11" lengthAdjust="spacing" textLength="83" x="332.6937" y="104.4292">Price : decimal</text><text fill="#000000" font-family="sans-serif" font-size="11" lengthAdjust="spacing" textLength="67" x="332.6937" y="117.2339">OrderId : int</text><text fill="#000000" font-family="sans-serif" font-size="11" lengthAdjust="spacing" textLength="75" x="332.6937" y="130.0386">Order : Order</text><line style="stroke:#A80036;stroke-width:1.5;" x1="327.6937" x2="455.6937" y1="136.6328" y2="136.6328"/><!--MD5=[5966e65ec991dc36b37db3be72f739a6]
class ShoppingCart--><rect codeLine="74" fill="#FEFECE" filter="url(#fevqdwidi23v8)" height="137.6328" id="ShoppingCart" style="stroke:#A80036;stroke-width:1.5;" width="145" x="73.1937" y="7"/><ellipse cx="102.5937" cy="23" fill="#ADD1B2" rx="11" ry="11" style="stroke:#A80036;stroke-width:1.0;"/><path d="M104.9375,18.6719 C104,18.2344 103.4062,18.0938 102.5312,18.0938 C99.9062,18.0938 97.9062,20.1719 97.9062,22.8906 L97.9062,24.0156 C97.9062,26.5938 100.0156,28.4844 102.9062,28.4844 C104.125,28.4844 105.2812,28.1875 106.0312,27.6406 C106.6093,27.2344 106.9375,26.7813 106.9375,26.3906 C106.9375,25.9375 106.5468,25.5469 106.0781,25.5469 C105.8593,25.5469 105.6562,25.625 105.4687,25.8125 C105.0156,26.2969 105.0156,26.2969 104.8281,26.3906 C104.4062,26.6563 103.7187,26.7813 102.9531,26.7813 C100.9062,26.7813 99.6093,25.6875 99.6093,23.9844 L99.6093,22.8906 C99.6093,21.1094 100.8593,19.7969 102.5937,19.7969 C103.1718,19.7969 103.7812,19.9531 104.25,20.2031 C104.7343,20.4844 104.9062,20.7031 105,21.1094 C105.0625,21.5156 105.0937,21.6406 105.2343,21.7656 C105.375,21.9063 105.6093,22.0156 105.8281,22.0156 C106.0937,22.0156 106.3593,21.875 106.5312,21.6563 C106.6406,21.5 106.6718,21.3125 106.6718,20.8906 L106.6718,19.4688 C106.6718,19.0313 106.6562,18.9063 106.5625,18.75 C106.4062,18.4844 106.125,18.3438 105.8281,18.3438 C105.5312,18.3438 105.3281,18.4375 105.1093,18.75 L104.9375,18.6719 Z " fill="#000000"/><text fill="#000000" font-family="sans-serif" font-size="12" lengthAdjust="spacing" textLength="81" x="119.7937" y="27.1543">ShoppingCart</text><line style="stroke:#A80036;stroke-width:1.5;" x1="74.1937" x2="217.1937" y1="39" y2="39"/><text fill="#000000" font-family="sans-serif" font-size="11" lengthAdjust="spacing" textLength="35" x="79.1937" y="53.2104">Id : int</text><text fill="#000000" font-family="sans-serif" font-size="11" lengthAdjust="spacing" textLength="121" x="79.1937" y="66.0151">CustomerId : int «FK»</text><text fill="#000000" font-family="sans-serif" font-size="11" lengthAdjust="spacing" textLength="121" x="79.1937" y="78.8198">Customer : Customer</text><text fill="#000000" font-family="sans-serif" font-size="11" lengthAdjust="spacing" textLength="95" x="79.1937" y="91.6245">OfferId : int «FK»</text><text fill="#000000" font-family="sans-serif" font-size="11" lengthAdjust="spacing" textLength="69" x="79.1937" y="104.4292">Offer : Offer</text><text fill="#000000" font-family="sans-serif" font-size="11" lengthAdjust="spacing" textLength="73" x="79.1937" y="117.2339">Quantity : int</text><text fill="#000000" font-family="sans-serif" font-size="11" lengthAdjust="spacing" textLength="133" x="79.1937" y="130.0386">DateAdded : DateTime</text><line style="stroke:#A80036;stroke-width:1.5;" x1="74.1937" x2="217.1937" y1="136.6328" y2="136.6328"/><!--MD5=[9d267913275094cee8b213adaba16fc1]
link Customer to Address--><path codeLine="15" d="M66.6937,540.442 C66.6937,559.646 66.6937,581.08 66.6937,599.957 " fill="none" id="Customer-Address" style="stroke:#A80036;stroke-width:1.0;"/><!--MD5=[5c0c66984b48f13f6f1fd84ba8e61151]
link Product to ProductCategory--><path codeLine="28" d="M402.6937,533.606 C402.6937,557.603 402.6937,586.273 402.6937,609.332 " fill="none" id="Product-ProductCategory" style="stroke:#A80036;stroke-width:1.0;"/><!--MD5=[48899a5fad677940e75da7b5e010d5cb]
link Offer to Product--><path codeLine="39" d="M362.2917,355.602 C370.5037,381.498 379.6887,410.461 387.2237,434.22 " fill="none" id="Offer-Product" style="stroke:#A80036;stroke-width:1.0;"/><!--MD5=[70935dd098ed5da231aa315676372594]
link Offer to Store--><path codeLine="40" d="M296.4537,355.602 C276.4807,386.347 253.7007,421.414 237.1037,446.964 " fill="none" id="Offer-Store" style="stroke:#A80036;stroke-width:1.0;"/><!--MD5=[fd1dc80f23477c95e792822846b0130a]
link Order to Store--><path codeLine="53" d="M171.9817,368.146 C181.9137,395.493 192.5147,424.684 200.5447,446.793 " fill="none" id="Order-Store" style="stroke:#A80036;stroke-width:1.0;"/><!--MD5=[65622aaf8fcfd7b10df86db327daabc8]
link Order to Customer--><path codeLine="54" d="M111.3427,368.146 C103.5331,388.236 95.3366,409.32 88.1287,427.861 " fill="none" id="Order-Customer" style="stroke:#A80036;stroke-width:1.0;"/><!--MD5=[663c18ce459b41abc4dbff87433befbf]
link OrderItem to Product--><path codeLine="65" d="M416.5527,145.228 C422.3827,164.31 427.7497,185.24 430.6937,205 C441.3677,276.654 439.3237,296.071 430.6937,368 C428.0497,390.034 422.6537,413.945 417.2977,434.227 " fill="none" id="OrderItem-Product" style="stroke:#A80036;stroke-width:1.0;"/><!--MD5=[6fdd3a56367c3f6d82414cd1c02f6850]
link OrderItem to Order--><path codeLine="66" d="M326.5967,131.509 C298.3547,155.157 264.7847,183.267 234.1057,208.956 " fill="none" id="OrderItem-Order" style="stroke:#A80036;stroke-width:1.0;"/><!--MD5=[56d0bb31bf947e97979c52acf51454f4]
link ShoppingCart to Customer--><path codeLine="83" d="M73.1892,141.928 C57.1177,160.537 42.314,182.058 33.6937,205 C6,278.705 26.571,370.453 45.4118,427.893 " fill="none" id="ShoppingCart-Customer" style="stroke:#A80036;stroke-width:1.0;"/><!--MD5=[c626500308ab552916e3ef70d2be00a4]
link ShoppingCart to Offer--><path codeLine="84" d="M209.5437,145.271 C231.2037,168.43 255.3887,194.289 277.0327,217.432 " fill="none" id="ShoppingCart-Offer" style="stroke:#A80036;stroke-width:1.0;"/><!--MD5=[b0e488a08ba9677bf608f4adad15fb05]
@startuml
class Address <<value object>> {
    Street : string
    Zip : string
    City : string
    Country : string
}

class Customer {
    Id : int
    Firstname : string
    Lastname : string
    Email : string
    Address : Address
}
Customer - - Address

class Store {
  Id : int
  Name : string
}

class Product {
    Ean : int
    Name : string
    ProductCategoryId : int <<FK>>
    ProductCategory : ProductCategory
}
Product - - ProductCategory

class Offer {
  Id : int
  ProductEan : int <<FK>>
  Product : Product
  StoreId : int <<FK>>
  Store : Store
  Price : decimal
  LastUpdate : DateTime
}
Offer - - Product
Offer - - Store

class Order {
    Id : int
    OrderDate : DateTime
    PaymentDate : DateTime?
    DeliveryDate : DateTime?
    StoreId : int <<FK>>
    Store : Store
    CustomerId : int <<FK>>
    Customer : Customer
    OrderItems : List<OrderItem>
}
Order - - Store
Order - - Customer

class OrderItem {
    Id : int
    Quantity : int
    ProductEan : int <<FK>>
    Product : Product
    Price : decimal
    OrderId : int
    Order : Order
}
OrderItem - - Product
OrderItem - - Order

class ProductCategory {
    Id : int
    Name : string
    Products : List<Product>
}

class ShoppingCart {
    Id : int
    CustomerId : int <<FK>>
    Customer : Customer
    OfferId : int <<FK>>
    Offer : Offer
    Quantity : int
    DateAdded : DateTime
}
ShoppingCart - - Customer
ShoppingCart - - Offer
@enduml

PlantUML version 1.2021.13beta8(Unknown compile time)
(GPL source distribution)
Java Runtime: Java(TM) SE Runtime Environment
JVM: Java HotSpot(TM) 64-Bit Server VM
Default Encoding: UTF-8
Language: en
Country: US
--></g></svg>