<?xml version="1.0" encoding="UTF-8" standalone="no"?><svg xmlns="http://www.w3.org/2000/svg" xmlns:xlink="http://www.w3.org/1999/xlink" contentScriptType="application/ecmascript" contentStyleType="text/css" height="604px" preserveAspectRatio="none" style="width:369px;height:604px;background:#FFFFFF;" version="1.1" viewBox="0 0 369 604" width="369px" zoomAndPan="magnify"><defs><filter height="300%" id="fuu682olhy86r" width="300%" x="-1" y="-1"><feGaussianBlur result="blurOut" stdDeviation="2.0"/><feColorMatrix in="blurOut" result="blurOut2" type="matrix" values="0 0 0 0 0 0 0 0 0 0 0 0 0 0 0 0 0 0 .4 0"/><feOffset dx="4.0" dy="4.0" in="blurOut2" result="blurOut3"/><feBlend in="SourceGraphic" in2="blurOut3" mode="normal"/></filter></defs><g><!--MD5=[b4d3d50c0abf08df45181fececb9f04d]
class Store--><rect codeLine="3" fill="#FEFECE" filter="url(#fuu682olhy86r)" height="91.2188" id="Store" style="stroke:#A80036;stroke-width:1.5;" width="138" x="49.5" y="13.5"/><ellipse cx="97.75" cy="29.5" fill="#ADD1B2" rx="11" ry="11" style="stroke:#A80036;stroke-width:1.0;"/><path d="M100.0938,25.1719 C99.1563,24.7344 98.5625,24.5938 97.6875,24.5938 C95.0625,24.5938 93.0625,26.6719 93.0625,29.3906 L93.0625,30.5156 C93.0625,33.0938 95.1719,34.9844 98.0625,34.9844 C99.2813,34.9844 100.4375,34.6875 101.1875,34.1406 C101.7656,33.7344 102.0938,33.2813 102.0938,32.8906 C102.0938,32.4375 101.7031,32.0469 101.2344,32.0469 C101.0156,32.0469 100.8125,32.125 100.625,32.3125 C100.1719,32.7969 100.1719,32.7969 99.9844,32.8906 C99.5625,33.1563 98.875,33.2813 98.1094,33.2813 C96.0625,33.2813 94.7656,32.1875 94.7656,30.4844 L94.7656,29.3906 C94.7656,27.6094 96.0156,26.2969 97.75,26.2969 C98.3281,26.2969 98.9375,26.4531 99.4063,26.7031 C99.8906,26.9844 100.0625,27.2031 100.1563,27.6094 C100.2188,28.0156 100.25,28.1406 100.3906,28.2656 C100.5313,28.4063 100.7656,28.5156 100.9844,28.5156 C101.25,28.5156 101.5156,28.375 101.6875,28.1563 C101.7969,28 101.8281,27.8125 101.8281,27.3906 L101.8281,25.9688 C101.8281,25.5313 101.8125,25.4063 101.7188,25.25 C101.5625,24.9844 101.2813,24.8438 100.9844,24.8438 C100.6875,24.8438 100.4844,24.9375 100.2656,25.25 L100.0938,25.1719 Z " fill="#000000"/><text fill="#000000" font-family="sans-serif" font-size="12" lengthAdjust="spacing" textLength="33" x="118.25" y="33.6543">Store</text><line style="stroke:#A80036;stroke-width:1.5;" x1="50.5" x2="186.5" y1="45.5" y2="45.5"/><ellipse cx="60.5" cy="56.5" rx="3" ry="3" style="stroke:#038048;stroke-width:1.0;fill:none;"/><text fill="#000000" font-family="sans-serif" font-size="11" lengthAdjust="spacing" textLength="35" x="69.5" y="59.7104">Id : int</text><ellipse cx="60.5" cy="69.3047" rx="3" ry="3" style="stroke:#038048;stroke-width:1.0;fill:none;"/><text fill="#000000" font-family="sans-serif" font-size="11" lengthAdjust="spacing" textLength="63" x="69.5" y="72.5151">Guid : Guid</text><ellipse cx="60.5" cy="82.1094" rx="3" ry="3" style="stroke:#038048;stroke-width:1.0;fill:none;"/><text fill="#000000" font-family="sans-serif" font-size="11" lengthAdjust="spacing" textLength="76" x="69.5" y="85.3198">Name : string</text><ellipse cx="60.5" cy="94.9141" rx="3" ry="3" style="stroke:#038048;stroke-width:1.0;fill:none;"/><text fill="#000000" font-family="sans-serif" font-size="11" lengthAdjust="spacing" textLength="112" x="69.5" y="98.1245">Offers : List&lt;Offer&gt;</text><!--MD5=[af8ed831b3fe9dbd380fec6c597723ab]
class Offer--><rect codeLine="11" fill="#FEFECE" filter="url(#fuu682olhy86r)" height="116.8281" id="Offer" style="stroke:#A80036;stroke-width:1.5;" width="158" x="39.5" y="171"/><ellipse cx="98.75" cy="187" fill="#ADD1B2" rx="11" ry="11" style="stroke:#A80036;stroke-width:1.0;"/><path d="M101.0938,182.6719 C100.1563,182.2344 99.5625,182.0938 98.6875,182.0938 C96.0625,182.0938 94.0625,184.1719 94.0625,186.8906 L94.0625,188.0156 C94.0625,190.5938 96.1719,192.4844 99.0625,192.4844 C100.2813,192.4844 101.4375,192.1875 102.1875,191.6406 C102.7656,191.2344 103.0938,190.7813 103.0938,190.3906 C103.0938,189.9375 102.7031,189.5469 102.2344,189.5469 C102.0156,189.5469 101.8125,189.625 101.625,189.8125 C101.1719,190.2969 101.1719,190.2969 100.9844,190.3906 C100.5625,190.6563 99.875,190.7813 99.1094,190.7813 C97.0625,190.7813 95.7656,189.6875 95.7656,187.9844 L95.7656,186.8906 C95.7656,185.1094 97.0156,183.7969 98.75,183.7969 C99.3281,183.7969 99.9375,183.9531 100.4063,184.2031 C100.8906,184.4844 101.0625,184.7031 101.1563,185.1094 C101.2188,185.5156 101.25,185.6406 101.3906,185.7656 C101.5313,185.9063 101.7656,186.0156 101.9844,186.0156 C102.25,186.0156 102.5156,185.875 102.6875,185.6563 C102.7969,185.5 102.8281,185.3125 102.8281,184.8906 L102.8281,183.4688 C102.8281,183.0313 102.8125,182.9063 102.7188,182.75 C102.5625,182.4844 102.2813,182.3438 101.9844,182.3438 C101.6875,182.3438 101.4844,182.4375 101.2656,182.75 L101.0938,182.6719 Z " fill="#000000"/><text fill="#000000" font-family="sans-serif" font-size="12" lengthAdjust="spacing" textLength="31" x="119.25" y="191.1543">Offer</text><line style="stroke:#A80036;stroke-width:1.5;" x1="40.5" x2="196.5" y1="203" y2="203"/><ellipse cx="50.5" cy="214" rx="3" ry="3" style="stroke:#038048;stroke-width:1.0;fill:none;"/><text fill="#000000" font-family="sans-serif" font-size="11" lengthAdjust="spacing" textLength="35" x="59.5" y="217.2104">Id : int</text><ellipse cx="50.5" cy="226.8047" rx="3" ry="3" style="stroke:#038048;stroke-width:1.0;fill:none;"/><text fill="#000000" font-family="sans-serif" font-size="11" lengthAdjust="spacing" textLength="63" x="59.5" y="230.0151">Guid : Guid</text><ellipse cx="50.5" cy="239.6094" rx="3" ry="3" style="stroke:#038048;stroke-width:1.0;fill:none;"/><text fill="#000000" font-family="sans-serif" font-size="11" lengthAdjust="spacing" textLength="93" x="59.5" y="242.8198">Product : Product</text><ellipse cx="50.5" cy="252.4141" rx="3" ry="3" style="stroke:#038048;stroke-width:1.0;fill:none;"/><text fill="#000000" font-family="sans-serif" font-size="11" lengthAdjust="spacing" textLength="73" x="59.5" y="255.6245">Store : Store</text><ellipse cx="50.5" cy="265.2188" rx="3" ry="3" style="stroke:#038048;stroke-width:1.0;fill:none;"/><text fill="#000000" font-family="sans-serif" font-size="11" lengthAdjust="spacing" textLength="83" x="59.5" y="268.4292">Price : decimal</text><ellipse cx="50.5" cy="278.0234" rx="3" ry="3" style="stroke:#038048;stroke-width:1.0;fill:none;"/><text fill="#000000" font-family="sans-serif" font-size="11" lengthAdjust="spacing" textLength="132" x="59.5" y="281.2339">LastUpdate : DateTime</text><!--MD5=[72136138052d025cffdce3c22fbd185f]
class Product--><rect codeLine="30" fill="#FEFECE" filter="url(#fuu682olhy86r)" height="91.2188" id="Product" style="stroke:#A80036;stroke-width:1.5;" width="223" x="7" y="348"/><ellipse cx="91.75" cy="364" fill="#ADD1B2" rx="11" ry="11" style="stroke:#A80036;stroke-width:1.0;"/><path d="M94.0938,359.6719 C93.1563,359.2344 92.5625,359.0938 91.6875,359.0938 C89.0625,359.0938 87.0625,361.1719 87.0625,363.8906 L87.0625,365.0156 C87.0625,367.5938 89.1719,369.4844 92.0625,369.4844 C93.2813,369.4844 94.4375,369.1875 95.1875,368.6406 C95.7656,368.2344 96.0938,367.7813 96.0938,367.3906 C96.0938,366.9375 95.7031,366.5469 95.2344,366.5469 C95.0156,366.5469 94.8125,366.625 94.625,366.8125 C94.1719,367.2969 94.1719,367.2969 93.9844,367.3906 C93.5625,367.6563 92.875,367.7813 92.1094,367.7813 C90.0625,367.7813 88.7656,366.6875 88.7656,364.9844 L88.7656,363.8906 C88.7656,362.1094 90.0156,360.7969 91.75,360.7969 C92.3281,360.7969 92.9375,360.9531 93.4063,361.2031 C93.8906,361.4844 94.0625,361.7031 94.1563,362.1094 C94.2188,362.5156 94.25,362.6406 94.3906,362.7656 C94.5313,362.9063 94.7656,363.0156 94.9844,363.0156 C95.25,363.0156 95.5156,362.875 95.6875,362.6563 C95.7969,362.5 95.8281,362.3125 95.8281,361.8906 L95.8281,360.4688 C95.8281,360.0313 95.8125,359.9063 95.7188,359.75 C95.5625,359.4844 95.2813,359.3438 94.9844,359.3438 C94.6875,359.3438 94.4844,359.4375 94.2656,359.75 L94.0938,359.6719 Z " fill="#000000"/><text fill="#000000" font-family="sans-serif" font-size="12" lengthAdjust="spacing" textLength="45" x="112.25" y="368.1543">Product</text><line style="stroke:#A80036;stroke-width:1.5;" x1="8" x2="229" y1="380" y2="380"/><ellipse cx="18" cy="391" rx="3" ry="3" style="stroke:#038048;stroke-width:1.0;fill:none;"/><text fill="#000000" font-family="sans-serif" font-size="11" lengthAdjust="spacing" textLength="46" x="27" y="394.2104">Ean : int</text><ellipse cx="18" cy="403.8047" rx="3" ry="3" style="stroke:#038048;stroke-width:1.0;fill:none;"/><text fill="#000000" font-family="sans-serif" font-size="11" lengthAdjust="spacing" textLength="63" x="27" y="407.0151">Guid : Guid</text><ellipse cx="18" cy="416.6094" rx="3" ry="3" style="stroke:#038048;stroke-width:1.0;fill:none;"/><text fill="#000000" font-family="sans-serif" font-size="11" lengthAdjust="spacing" textLength="76" x="27" y="419.8198">Name : string</text><ellipse cx="18" cy="429.4141" rx="3" ry="3" style="stroke:#038048;stroke-width:1.0;fill:none;"/><text fill="#000000" font-family="sans-serif" font-size="11" lengthAdjust="spacing" textLength="197" x="27" y="432.6245">ProductCategory : ProductCategory</text><!--MD5=[a1db4bf20df23ac2cd9366d22a9e2860]
class ProductCategory--><rect codeLine="23" fill="#FEFECE" filter="url(#fuu682olhy86r)" height="91.2188" id="ProductCategory" style="stroke:#A80036;stroke-width:1.5;" width="162" x="37.5" y="499"/><ellipse cx="66" cy="515" fill="#ADD1B2" rx="11" ry="11" style="stroke:#A80036;stroke-width:1.0;"/><path d="M68.3438,510.6719 C67.4063,510.2344 66.8125,510.0938 65.9375,510.0938 C63.3125,510.0938 61.3125,512.1719 61.3125,514.8906 L61.3125,516.0156 C61.3125,518.5938 63.4219,520.4844 66.3125,520.4844 C67.5313,520.4844 68.6875,520.1875 69.4375,519.6406 C70.0156,519.2344 70.3438,518.7813 70.3438,518.3906 C70.3438,517.9375 69.9531,517.5469 69.4844,517.5469 C69.2656,517.5469 69.0625,517.625 68.875,517.8125 C68.4219,518.2969 68.4219,518.2969 68.2344,518.3906 C67.8125,518.6563 67.125,518.7813 66.3594,518.7813 C64.3125,518.7813 63.0156,517.6875 63.0156,515.9844 L63.0156,514.8906 C63.0156,513.1094 64.2656,511.7969 66,511.7969 C66.5781,511.7969 67.1875,511.9531 67.6563,512.2031 C68.1406,512.4844 68.3125,512.7031 68.4063,513.1094 C68.4688,513.5156 68.5,513.6406 68.6406,513.7656 C68.7813,513.9063 69.0156,514.0156 69.2344,514.0156 C69.5,514.0156 69.7656,513.875 69.9375,513.6563 C70.0469,513.5 70.0781,513.3125 70.0781,512.8906 L70.0781,511.4688 C70.0781,511.0313 70.0625,510.9063 69.9688,510.75 C69.8125,510.4844 69.5313,510.3438 69.2344,510.3438 C68.9375,510.3438 68.7344,510.4375 68.5156,510.75 L68.3438,510.6719 Z " fill="#000000"/><text fill="#000000" font-family="sans-serif" font-size="12" lengthAdjust="spacing" textLength="100" x="83" y="519.1543">ProductCategory</text><line style="stroke:#A80036;stroke-width:1.5;" x1="38.5" x2="198.5" y1="531" y2="531"/><ellipse cx="48.5" cy="542" rx="3" ry="3" style="stroke:#038048;stroke-width:1.0;fill:none;"/><text fill="#000000" font-family="sans-serif" font-size="11" lengthAdjust="spacing" textLength="35" x="57.5" y="545.2104">Id : int</text><ellipse cx="48.5" cy="554.8047" rx="3" ry="3" style="stroke:#038048;stroke-width:1.0;fill:none;"/><text fill="#000000" font-family="sans-serif" font-size="11" lengthAdjust="spacing" textLength="63" x="57.5" y="558.0151">Guid : Guid</text><ellipse cx="48.5" cy="567.6094" rx="3" ry="3" style="stroke:#038048;stroke-width:1.0;fill:none;"/><text fill="#000000" font-family="sans-serif" font-size="11" lengthAdjust="spacing" textLength="76" x="57.5" y="570.8198">Name : string</text><ellipse cx="48.5" cy="580.4141" rx="3" ry="3" style="stroke:#038048;stroke-width:1.0;fill:none;"/><text fill="#000000" font-family="sans-serif" font-size="11" lengthAdjust="spacing" textLength="136" x="57.5" y="583.6245">Products : List&lt;Product&gt;</text><!--MD5=[2ce0c9fb7f55b1e256ab28a8ea6b25ec]
class Customer--><rect codeLine="38" fill="#FEFECE" filter="url(#fuu682olhy86r)" height="104.0234" id="Customer" style="stroke:#A80036;stroke-width:1.5;" width="129" x="226" y="7"/><ellipse cx="258.55" cy="23" fill="#ADD1B2" rx="11" ry="11" style="stroke:#A80036;stroke-width:1.0;"/><path d="M260.8938,18.6719 C259.9563,18.2344 259.3625,18.0938 258.4875,18.0938 C255.8625,18.0938 253.8625,20.1719 253.8625,22.8906 L253.8625,24.0156 C253.8625,26.5938 255.9719,28.4844 258.8625,28.4844 C260.0813,28.4844 261.2375,28.1875 261.9875,27.6406 C262.5656,27.2344 262.8938,26.7813 262.8938,26.3906 C262.8938,25.9375 262.5031,25.5469 262.0344,25.5469 C261.8156,25.5469 261.6125,25.625 261.425,25.8125 C260.9719,26.2969 260.9719,26.2969 260.7844,26.3906 C260.3625,26.6563 259.675,26.7813 258.9094,26.7813 C256.8625,26.7813 255.5656,25.6875 255.5656,23.9844 L255.5656,22.8906 C255.5656,21.1094 256.8156,19.7969 258.55,19.7969 C259.1281,19.7969 259.7375,19.9531 260.2063,20.2031 C260.6906,20.4844 260.8625,20.7031 260.9563,21.1094 C261.0188,21.5156 261.05,21.6406 261.1906,21.7656 C261.3313,21.9063 261.5656,22.0156 261.7844,22.0156 C262.05,22.0156 262.3156,21.875 262.4875,21.6563 C262.5969,21.5 262.6281,21.3125 262.6281,20.8906 L262.6281,19.4688 C262.6281,19.0313 262.6125,18.9063 262.5188,18.75 C262.3625,18.4844 262.0813,18.3438 261.7844,18.3438 C261.4875,18.3438 261.2844,18.4375 261.0656,18.75 L260.8938,18.6719 Z " fill="#000000"/><text fill="#000000" font-family="sans-serif" font-size="12" lengthAdjust="spacing" textLength="58" x="276.45" y="27.1543">Customer</text><line style="stroke:#A80036;stroke-width:1.5;" x1="227" x2="354" y1="39" y2="39"/><ellipse cx="237" cy="50" rx="3" ry="3" style="stroke:#038048;stroke-width:1.0;fill:none;"/><text fill="#000000" font-family="sans-serif" font-size="11" lengthAdjust="spacing" textLength="35" x="246" y="53.2104">Id : int</text><ellipse cx="237" cy="62.8047" rx="3" ry="3" style="stroke:#038048;stroke-width:1.0;fill:none;"/><text fill="#000000" font-family="sans-serif" font-size="11" lengthAdjust="spacing" textLength="98" x="246" y="66.0151">Firstname : string</text><ellipse cx="237" cy="75.6094" rx="3" ry="3" style="stroke:#038048;stroke-width:1.0;fill:none;"/><text fill="#000000" font-family="sans-serif" font-size="11" lengthAdjust="spacing" textLength="98" x="246" y="78.8198">Lastname : string</text><ellipse cx="237" cy="88.4141" rx="3" ry="3" style="stroke:#038048;stroke-width:1.0;fill:none;"/><text fill="#000000" font-family="sans-serif" font-size="11" lengthAdjust="spacing" textLength="73" x="246" y="91.6245">Email : string</text><ellipse cx="237" cy="101.2188" rx="3" ry="3" style="stroke:#038048;stroke-width:1.0;fill:none;"/><text fill="#000000" font-family="sans-serif" font-size="11" lengthAdjust="spacing" textLength="103" x="246" y="104.4292">Address : Address</text><!--MD5=[0f39e4cb6f03951afbf6d14bd2505654]
class Address--><rect codeLine="47" fill="#FEFECE" filter="url(#fuu682olhy86r)" height="97.1563" id="Address" style="stroke:#A80036;stroke-width:1.5;" width="116" x="232.5" y="181"/><ellipse cx="247.5" cy="199.9688" fill="#ADD1B2" rx="11" ry="11" style="stroke:#A80036;stroke-width:1.0;"/><path d="M249.8438,195.6406 C248.9063,195.2031 248.3125,195.0625 247.4375,195.0625 C244.8125,195.0625 242.8125,197.1406 242.8125,199.8594 L242.8125,200.9844 C242.8125,203.5625 244.9219,205.4531 247.8125,205.4531 C249.0313,205.4531 250.1875,205.1563 250.9375,204.6094 C251.5156,204.2031 251.8438,203.75 251.8438,203.3594 C251.8438,202.9063 251.4531,202.5156 250.9844,202.5156 C250.7656,202.5156 250.5625,202.5938 250.375,202.7813 C249.9219,203.2656 249.9219,203.2656 249.7344,203.3594 C249.3125,203.625 248.625,203.75 247.8594,203.75 C245.8125,203.75 244.5156,202.6563 244.5156,200.9531 L244.5156,199.8594 C244.5156,198.0781 245.7656,196.7656 247.5,196.7656 C248.0781,196.7656 248.6875,196.9219 249.1563,197.1719 C249.6406,197.4531 249.8125,197.6719 249.9063,198.0781 C249.9688,198.4844 250,198.6094 250.1406,198.7344 C250.2813,198.875 250.5156,198.9844 250.7344,198.9844 C251,198.9844 251.2656,198.8438 251.4375,198.625 C251.5469,198.4688 251.5781,198.2813 251.5781,197.8594 L251.5781,196.4375 C251.5781,196 251.5625,195.875 251.4688,195.7188 C251.3125,195.4531 251.0313,195.3125 250.7344,195.3125 C250.4375,195.3125 250.2344,195.4063 250.0156,195.7188 L249.8438,195.6406 Z " fill="#000000"/><text fill="#000000" font-family="sans-serif" font-size="12" font-style="italic" lengthAdjust="spacing" textLength="88" x="259.5" y="197.1387">«Value object»</text><text fill="#000000" font-family="sans-serif" font-size="12" lengthAdjust="spacing" textLength="51" x="278" y="211.1074">Address</text><line style="stroke:#A80036;stroke-width:1.5;" x1="233.5" x2="347.5" y1="218.9375" y2="218.9375"/><ellipse cx="243.5" cy="229.9375" rx="3" ry="3" style="stroke:#038048;stroke-width:1.0;fill:none;"/><text fill="#000000" font-family="sans-serif" font-size="11" lengthAdjust="spacing" textLength="78" x="252.5" y="233.1479">Street : string</text><ellipse cx="243.5" cy="242.7422" rx="3" ry="3" style="stroke:#038048;stroke-width:1.0;fill:none;"/><text fill="#000000" font-family="sans-serif" font-size="11" lengthAdjust="spacing" textLength="60" x="252.5" y="245.9526">Zip : string</text><ellipse cx="243.5" cy="255.5469" rx="3" ry="3" style="stroke:#038048;stroke-width:1.0;fill:none;"/><text fill="#000000" font-family="sans-serif" font-size="11" lengthAdjust="spacing" textLength="64" x="252.5" y="258.7573">City : string</text><ellipse cx="243.5" cy="268.3516" rx="3" ry="3" style="stroke:#038048;stroke-width:1.0;fill:none;"/><text fill="#000000" font-family="sans-serif" font-size="11" lengthAdjust="spacing" textLength="86" x="252.5" y="271.562">Country : string</text><!--MD5=[6950f9a45937f074e18d41a69f823e02]
link Store to Offer--><path codeLine="9" d="M106.7353,110.024 C105.6732,127.495 105.4698,147.332 106.1249,165.709 " fill="none" id="Store-Offer" style="stroke:#A80036;stroke-width:1.0;"/><polygon fill="#A80036" points="106.3325,170.851,109.9666,161.6971,106.1311,165.8551,101.9731,162.0195,106.3325,170.851" style="stroke:#A80036;stroke-width:1.0;"/><polygon fill="#A80036" points="107.09,104.713,102.4997,113.4268,106.7571,109.7019,110.482,113.9593,107.09,104.713" style="stroke:#A80036;stroke-width:1.0;"/><!--MD5=[70935dd098ed5da231aa315676372594]
link Offer to Store--><path codeLine="20" d="M131.383,170.851 C132.329,151.083 132.187,129.138 130.957,110.024 " fill="none" id="Offer-to-Store" style="stroke:#A80036;stroke-width:1.0;"/><polygon fill="#A80036" points="130.581,104.713,127.226,113.9728,130.9338,109.7005,135.206,113.4083,130.581,104.713" style="stroke:#A80036;stroke-width:1.0;"/><!--MD5=[48899a5fad677940e75da7b5e010d5cb]
link Offer to Product--><path codeLine="21" d="M118.5,288.071 C118.5,305.874 118.5,325.328 118.5,342.569 " fill="none" id="Offer-to-Product" style="stroke:#A80036;stroke-width:1.0;"/><polygon fill="#A80036" points="118.5,347.844,122.5,338.844,118.5,342.844,114.5,338.844,118.5,347.844" style="stroke:#A80036;stroke-width:1.0;"/><!--MD5=[5c0c66984b48f13f6f1fd84ba8e61151]
link Product to ProductCategory--><path codeLine="36" d="M118.5,444.584 C118.5,460.361 118.5,477.78 118.5,493.5475 " fill="none" id="Product-ProductCategory" style="stroke:#A80036;stroke-width:1.0;"/><polygon fill="#A80036" points="118.5,498.8266,122.5,489.8266,118.5,493.8266,114.5,489.8266,118.5,498.8266" style="stroke:#A80036;stroke-width:1.0;"/><polygon fill="#A80036" points="118.5,439.205,114.5,448.205,118.5,444.205,122.5,448.205,118.5,439.205" style="stroke:#A80036;stroke-width:1.0;"/><!--MD5=[9d267913275094cee8b213adaba16fc1]
link Customer to Address--><path codeLine="45" d="M290.5,111.013 C290.5,131.462 290.5,155.021 290.5,175.65 " fill="none" id="Customer-to-Address" style="stroke:#A80036;stroke-width:1.0;"/><polygon fill="#A80036" points="290.5,180.828,294.5,171.828,290.5,175.828,286.5,171.828,290.5,180.828" style="stroke:#A80036;stroke-width:1.0;"/><!--MD5=[5ff15f2d01ba5e5395abfb1c4459513f]
@startuml
hide empty methods

class Store {
    +Id : int
    +Guid : Guid
    +Name : string
    +Offers : List<Offer>
}
Store <- -> Offer

class Offer {
    +Id : int
    +Guid : Guid
    +Product : Product
    +Store : Store
    +Price : decimal
    +LastUpdate : DateTime
}

Offer - -> Store
Offer - -> Product

class ProductCategory {
    +Id : int
    +Guid : Guid
    +Name : string
    +Products : List<Product>
}

class Product {
    +Ean : int
    +Guid : Guid
    +Name : string
    +ProductCategory : ProductCategory
}
Product <- -> ProductCategory

class Customer {
    +Id : int
    +Firstname : string
    +Lastname : string
    +Email : string
    +Address : Address
}
Customer - -> Address

class Address <<Value object>> {
    +Street : string
    +Zip : string
    +City : string
    +Country : string
}
@enduml

PlantUML version 1.2021.15beta8(Unknown compile time)
(GPL source distribution)
Java Runtime: Java(TM) SE Runtime Environment
JVM: Java HotSpot(TM) 64-Bit Server VM
Default Encoding: UTF-8
Language: en
Country: US
--></g></svg>