<?xml version="1.0" encoding="UTF-8" standalone="no"?><svg xmlns="http://www.w3.org/2000/svg" xmlns:xlink="http://www.w3.org/1999/xlink" contentScriptType="application/ecmascript" contentStyleType="text/css" height="435px" preserveAspectRatio="none" style="width:488px;height:435px;background:#FFFFFF;" version="1.1" viewBox="0 0 488 435" width="488px" zoomAndPan="magnify"><defs><filter height="300%" id="f1ja5rkyhvnm9x" width="300%" x="-1" y="-1"><feGaussianBlur result="blurOut" stdDeviation="2.0"/><feColorMatrix in="blurOut" result="blurOut2" type="matrix" values="0 0 0 0 0 0 0 0 0 0 0 0 0 0 0 0 0 0 .4 0"/><feOffset dx="4.0" dy="4.0" in="blurOut2" result="blurOut3"/><feBlend in="SourceGraphic" in2="blurOut3" mode="normal"/></filter></defs><g><line style="stroke:#A80036;stroke-width:1.0;" x1="31" x2="31" y1="40.2969" y2="195.9609"/><line style="stroke:#A80036;stroke-width:1.0;stroke-dasharray:1.0,4.0;" x1="31" x2="31" y1="195.9609" y2="236.7656"/><line style="stroke:#A80036;stroke-width:1.0;" x1="31" x2="31" y1="236.7656" y2="392.4297"/><line style="stroke:#A80036;stroke-width:1.0;" x1="454" x2="454" y1="40.2969" y2="195.9609"/><line style="stroke:#A80036;stroke-width:1.0;stroke-dasharray:1.0,4.0;" x1="454" x2="454" y1="195.9609" y2="236.7656"/><line style="stroke:#A80036;stroke-width:1.0;" x1="454" x2="454" y1="236.7656" y2="392.4297"/><rect fill="#FEFECE" filter="url(#f1ja5rkyhvnm9x)" height="30.2969" style="stroke:#A80036;stroke-width:1.5;" width="49" x="5" y="5"/><text fill="#000000" font-family="sans-serif" font-size="14" lengthAdjust="spacing" textLength="35" x="12" y="24.9951">Alice</text><rect fill="#FEFECE" filter="url(#f1ja5rkyhvnm9x)" height="30.2969" style="stroke:#A80036;stroke-width:1.5;" width="49" x="5" y="391.4297"/><text fill="#000000" font-family="sans-serif" font-size="14" lengthAdjust="spacing" textLength="35" x="12" y="411.4248">Alice</text><rect fill="#FEFECE" filter="url(#f1ja5rkyhvnm9x)" height="30.2969" style="stroke:#A80036;stroke-width:1.5;" width="43" x="431" y="5"/><text fill="#000000" font-family="sans-serif" font-size="14" lengthAdjust="spacing" textLength="29" x="438" y="24.9951">Bob</text><rect fill="#FEFECE" filter="url(#f1ja5rkyhvnm9x)" height="30.2969" style="stroke:#A80036;stroke-width:1.5;" width="43" x="431" y="391.4297"/><text fill="#000000" font-family="sans-serif" font-size="14" lengthAdjust="spacing" textLength="29" x="438" y="411.4248">Bob</text><polygon fill="#A80036" points="442.5,67.4297,452.5,71.4297,442.5,75.4297,446.5,71.4297" style="stroke:#A80036;stroke-width:1.0;"/><line style="stroke:#A80036;stroke-width:1.0;" x1="31.5" x2="448.5" y1="71.4297" y2="71.4297"/><text fill="#000000" font-family="sans-serif" font-size="13" lengthAdjust="spacing" textLength="34" x="38.5" y="66.3638">GET /</text><polygon fill="#A80036" points="42.5,96.5625,32.5,100.5625,42.5,104.5625,38.5,100.5625" style="stroke:#A80036;stroke-width:1.0;"/><line style="stroke:#A80036;stroke-width:1.0;stroke-dasharray:2.0,2.0;" x1="36.5" x2="453.5" y1="100.5625" y2="100.5625"/><text fill="#000000" font-family="sans-serif" font-size="13" lengthAdjust="spacing" textLength="323" x="48.5" y="95.4966">Redirect to /login?ReturnUrl=%2Findex (HTTP 302)</text><polygon fill="#A80036" points="442.5,125.6953,452.5,129.6953,442.5,133.6953,446.5,129.6953" style="stroke:#A80036;stroke-width:1.0;"/><line style="stroke:#A80036;stroke-width:1.0;" x1="31.5" x2="448.5" y1="129.6953" y2="129.6953"/><text fill="#000000" font-family="sans-serif" font-size="13" lengthAdjust="spacing" textLength="64" x="38.5" y="124.6294">GET /login</text><polygon fill="#A80036" points="42.5,154.8281,32.5,158.8281,42.5,162.8281,38.5,158.8281" style="stroke:#A80036;stroke-width:1.0;"/><line style="stroke:#A80036;stroke-width:1.0;stroke-dasharray:2.0,2.0;" x1="36.5" x2="453.5" y1="158.8281" y2="158.8281"/><text fill="#000000" font-family="sans-serif" font-size="13" lengthAdjust="spacing" textLength="174" x="48.5" y="153.7622">Loginseite (HTML Formular)</text><polygon fill="#A80036" points="442.5,183.9609,452.5,187.9609,442.5,191.9609,446.5,187.9609" style="stroke:#A80036;stroke-width:1.0;"/><line style="stroke:#A80036;stroke-width:1.0;" x1="31.5" x2="448.5" y1="187.9609" y2="187.9609"/><text fill="#000000" font-family="sans-serif" font-size="13" lengthAdjust="spacing" textLength="399" x="38.5" y="182.895">POST /login (multipart/form-data) mit Username und Passwort</text><text fill="#000000" font-family="sans-serif" font-size="11" lengthAdjust="spacing" textLength="56" x="215" y="220.1714">If auth OK</text><polygon fill="#A80036" points="42.5,253.8984,32.5,257.8984,42.5,261.8984,38.5,257.8984" style="stroke:#A80036;stroke-width:1.0;"/><line style="stroke:#A80036;stroke-width:1.0;stroke-dasharray:2.0,2.0;" x1="36.5" x2="453.5" y1="257.8984" y2="257.8984"/><text fill="#000000" font-family="sans-serif" font-size="13" lengthAdjust="spacing" textLength="274" x="48.5" y="252.8325">Set Cookie + Redirect to /index (HTTP 302)</text><polygon fill="#A80036" points="442.5,283.0313,452.5,287.0313,442.5,291.0313,446.5,287.0313" style="stroke:#A80036;stroke-width:1.0;"/><line style="stroke:#A80036;stroke-width:1.0;" x1="31.5" x2="448.5" y1="287.0313" y2="287.0313"/><text fill="#000000" font-family="sans-serif" font-size="13" lengthAdjust="spacing" textLength="95" x="38.5" y="281.9653">GET / + Cookie</text><polygon fill="#A80036" points="42.5,312.1641,32.5,316.1641,42.5,320.1641,38.5,316.1641" style="stroke:#A80036;stroke-width:1.0;"/><line style="stroke:#A80036;stroke-width:1.0;stroke-dasharray:2.0,2.0;" x1="36.5" x2="453.5" y1="316.1641" y2="316.1641"/><text fill="#000000" font-family="sans-serif" font-size="13" lengthAdjust="spacing" textLength="70" x="48.5" y="311.0981">HTML Seite</text><polygon fill="#A80036" points="442.5,341.2969,452.5,345.2969,442.5,349.2969,446.5,345.2969" style="stroke:#A80036;stroke-width:1.0;"/><line style="stroke:#A80036;stroke-width:1.0;" x1="31.5" x2="448.5" y1="345.2969" y2="345.2969"/><text fill="#000000" font-family="sans-serif" font-size="13" lengthAdjust="spacing" textLength="140" x="38.5" y="340.231">GET /mySite + Cookie</text><polygon fill="#A80036" points="42.5,370.4297,32.5,374.4297,42.5,378.4297,38.5,374.4297" style="stroke:#A80036;stroke-width:1.0;"/><line style="stroke:#A80036;stroke-width:1.0;stroke-dasharray:2.0,2.0;" x1="36.5" x2="453.5" y1="374.4297" y2="374.4297"/><text fill="#000000" font-family="sans-serif" font-size="13" lengthAdjust="spacing" textLength="70" x="48.5" y="369.3638">HTML Seite</text><!--MD5=[500a7fbbdc00aba69f8f0ed4709bde3e]
@startuml
Alice -> Bob: GET /
Bob - -> Alice: Redirect to /login?ReturnUrl=%2Findex (HTTP 302)
Alice -> Bob: GET /login
Alice <- - Bob: Loginseite (HTML Formular)
Alice -> Bob: POST /login (multipart/form-data) mit Username und Passwort
... If auth OK ...
Alice <- - Bob: Set Cookie + Redirect to /index (HTTP 302)
Alice -> Bob: GET / + Cookie
Alice <- - Bob: HTML Seite
Alice -> Bob: GET /mySite + Cookie
Alice <- - Bob: HTML Seite
@enduml

PlantUML version 1.2021.15beta8(Unknown compile time)
(GPL source distribution)
Java Runtime: Java(TM) SE Runtime Environment
JVM: Java HotSpot(TM) 64-Bit Server VM
Default Encoding: UTF-8
Language: en
Country: US
--></g></svg>