<?xml version="1.0" encoding="UTF-8" standalone="no"?><svg xmlns="http://www.w3.org/2000/svg" xmlns:xlink="http://www.w3.org/1999/xlink" contentScriptType="application/ecmascript" contentStyleType="text/css" height="313px" preserveAspectRatio="none" style="width:375px;height:313px;background:#FFFFFF;" version="1.1" viewBox="0 0 375 313" width="375px" zoomAndPan="magnify"><defs><filter height="300%" id="f1wn576x8dqrjb" width="300%" x="-1" y="-1"><feGaussianBlur result="blurOut" stdDeviation="2.0"/><feColorMatrix in="blurOut" result="blurOut2" type="matrix" values="0 0 0 0 0 0 0 0 0 0 0 0 0 0 0 0 0 0 .4 0"/><feOffset dx="4.0" dy="4.0" in="blurOut2" result="blurOut3"/><feBlend in="SourceGraphic" in2="blurOut3" mode="normal"/></filter></defs><g><!--MD5=[02e4b9b7573f1156f41e60aa5b4e25a4]
class Company--><rect codeLine="2" fill="#FEFECE" filter="url(#f1wn576x8dqrjb)" height="40" id="Company" style="stroke:#A80036;stroke-width:1.5;" width="88" x="7" y="20"/><ellipse cx="22" cy="36" fill="#ADD1B2" rx="11" ry="11" style="stroke:#A80036;stroke-width:1.0;"/><path d="M24.3438,31.6719 C23.4063,31.2344 22.8125,31.0938 21.9375,31.0938 C19.3125,31.0938 17.3125,33.1719 17.3125,35.8906 L17.3125,37.0156 C17.3125,39.5938 19.4219,41.4844 22.3125,41.4844 C23.5313,41.4844 24.6875,41.1875 25.4375,40.6406 C26.0156,40.2344 26.3438,39.7813 26.3438,39.3906 C26.3438,38.9375 25.9531,38.5469 25.4844,38.5469 C25.2656,38.5469 25.0625,38.625 24.875,38.8125 C24.4219,39.2969 24.4219,39.2969 24.2344,39.3906 C23.8125,39.6563 23.125,39.7813 22.3594,39.7813 C20.3125,39.7813 19.0156,38.6875 19.0156,36.9844 L19.0156,35.8906 C19.0156,34.1094 20.2656,32.7969 22,32.7969 C22.5781,32.7969 23.1875,32.9531 23.6563,33.2031 C24.1406,33.4844 24.3125,33.7031 24.4063,34.1094 C24.4688,34.5156 24.5,34.6406 24.6406,34.7656 C24.7813,34.9063 25.0156,35.0156 25.2344,35.0156 C25.5,35.0156 25.7656,34.875 25.9375,34.6563 C26.0469,34.5 26.0781,34.3125 26.0781,33.8906 L26.0781,32.4688 C26.0781,32.0313 26.0625,31.9063 25.9688,31.75 C25.8125,31.4844 25.5313,31.3438 25.2344,31.3438 C24.9375,31.3438 24.7344,31.4375 24.5156,31.75 L24.3438,31.6719 Z " fill="#000000"/><text fill="#000000" font-family="sans-serif" font-size="12" lengthAdjust="spacing" textLength="56" x="36" y="40.1543">Company</text><line style="stroke:#A80036;stroke-width:1.5;" x1="8" x2="94" y1="52" y2="52"/><!--MD5=[2ce0c9fb7f55b1e256ab28a8ea6b25ec]
class Customer--><rect codeLine="6" fill="#FEFECE" filter="url(#f1wn576x8dqrjb)" height="40" id="Customer" style="stroke:#A80036;stroke-width:1.5;" width="90" x="144" y="259"/><ellipse cx="159" cy="275" fill="#ADD1B2" rx="11" ry="11" style="stroke:#A80036;stroke-width:1.0;"/><path d="M161.3438,270.6719 C160.4063,270.2344 159.8125,270.0938 158.9375,270.0938 C156.3125,270.0938 154.3125,272.1719 154.3125,274.8906 L154.3125,276.0156 C154.3125,278.5938 156.4219,280.4844 159.3125,280.4844 C160.5313,280.4844 161.6875,280.1875 162.4375,279.6406 C163.0156,279.2344 163.3438,278.7813 163.3438,278.3906 C163.3438,277.9375 162.9531,277.5469 162.4844,277.5469 C162.2656,277.5469 162.0625,277.625 161.875,277.8125 C161.4219,278.2969 161.4219,278.2969 161.2344,278.3906 C160.8125,278.6563 160.125,278.7813 159.3594,278.7813 C157.3125,278.7813 156.0156,277.6875 156.0156,275.9844 L156.0156,274.8906 C156.0156,273.1094 157.2656,271.7969 159,271.7969 C159.5781,271.7969 160.1875,271.9531 160.6563,272.2031 C161.1406,272.4844 161.3125,272.7031 161.4063,273.1094 C161.4688,273.5156 161.5,273.6406 161.6406,273.7656 C161.7813,273.9063 162.0156,274.0156 162.2344,274.0156 C162.5,274.0156 162.7656,273.875 162.9375,273.6563 C163.0469,273.5 163.0781,273.3125 163.0781,272.8906 L163.0781,271.4688 C163.0781,271.0313 163.0625,270.9063 162.9688,270.75 C162.8125,270.4844 162.5313,270.3438 162.2344,270.3438 C161.9375,270.3438 161.7344,270.4375 161.5156,270.75 L161.3438,270.6719 Z " fill="#000000"/><text fill="#000000" font-family="sans-serif" font-size="12" lengthAdjust="spacing" textLength="58" x="173" y="279.1543">Customer</text><line style="stroke:#A80036;stroke-width:1.5;" x1="145" x2="233" y1="291" y2="291"/><!--MD5=[d22815ff63be9cac9a63f8d1ea27d033]
class Article--><rect codeLine="11" fill="#FEFECE" filter="url(#f1wn576x8dqrjb)" height="40" id="Article" style="stroke:#A80036;stroke-width:1.5;" width="70" x="80" y="146"/><ellipse cx="95" cy="162" fill="#ADD1B2" rx="11" ry="11" style="stroke:#A80036;stroke-width:1.0;"/><path d="M97.3438,157.6719 C96.4063,157.2344 95.8125,157.0938 94.9375,157.0938 C92.3125,157.0938 90.3125,159.1719 90.3125,161.8906 L90.3125,163.0156 C90.3125,165.5938 92.4219,167.4844 95.3125,167.4844 C96.5313,167.4844 97.6875,167.1875 98.4375,166.6406 C99.0156,166.2344 99.3438,165.7813 99.3438,165.3906 C99.3438,164.9375 98.9531,164.5469 98.4844,164.5469 C98.2656,164.5469 98.0625,164.625 97.875,164.8125 C97.4219,165.2969 97.4219,165.2969 97.2344,165.3906 C96.8125,165.6563 96.125,165.7813 95.3594,165.7813 C93.3125,165.7813 92.0156,164.6875 92.0156,162.9844 L92.0156,161.8906 C92.0156,160.1094 93.2656,158.7969 95,158.7969 C95.5781,158.7969 96.1875,158.9531 96.6563,159.2031 C97.1406,159.4844 97.3125,159.7031 97.4063,160.1094 C97.4688,160.5156 97.5,160.6406 97.6406,160.7656 C97.7813,160.9063 98.0156,161.0156 98.2344,161.0156 C98.5,161.0156 98.7656,160.875 98.9375,160.6563 C99.0469,160.5 99.0781,160.3125 99.0781,159.8906 L99.0781,158.4688 C99.0781,158.0313 99.0625,157.9063 98.9688,157.75 C98.8125,157.4844 98.5313,157.3438 98.2344,157.3438 C97.9375,157.3438 97.7344,157.4375 97.5156,157.75 L97.3438,157.6719 Z " fill="#000000"/><text fill="#000000" font-family="sans-serif" font-size="12" lengthAdjust="spacing" textLength="38" x="109" y="166.1543">Article</text><line style="stroke:#A80036;stroke-width:1.5;" x1="81" x2="149" y1="178" y2="178"/><!--MD5=[894442645724153f40a9f7a43026dbfc]
class Invoice--><rect codeLine="15" fill="#FEFECE" filter="url(#f1wn576x8dqrjb)" height="65.6094" id="Invoice" style="stroke:#A80036;stroke-width:1.5;" width="133" x="185.5" y="133"/><ellipse cx="226.6" cy="149" fill="#ADD1B2" rx="11" ry="11" style="stroke:#A80036;stroke-width:1.0;"/><path d="M228.9438,144.6719 C228.0063,144.2344 227.4125,144.0938 226.5375,144.0938 C223.9125,144.0938 221.9125,146.1719 221.9125,148.8906 L221.9125,150.0156 C221.9125,152.5938 224.0219,154.4844 226.9125,154.4844 C228.1313,154.4844 229.2875,154.1875 230.0375,153.6406 C230.6156,153.2344 230.9438,152.7813 230.9438,152.3906 C230.9438,151.9375 230.5531,151.5469 230.0844,151.5469 C229.8656,151.5469 229.6625,151.625 229.475,151.8125 C229.0219,152.2969 229.0219,152.2969 228.8344,152.3906 C228.4125,152.6563 227.725,152.7813 226.9594,152.7813 C224.9125,152.7813 223.6156,151.6875 223.6156,149.9844 L223.6156,148.8906 C223.6156,147.1094 224.8656,145.7969 226.6,145.7969 C227.1781,145.7969 227.7875,145.9531 228.2563,146.2031 C228.7406,146.4844 228.9125,146.7031 229.0063,147.1094 C229.0688,147.5156 229.1,147.6406 229.2406,147.7656 C229.3813,147.9063 229.6156,148.0156 229.8344,148.0156 C230.1,148.0156 230.3656,147.875 230.5375,147.6563 C230.6469,147.5 230.6781,147.3125 230.6781,146.8906 L230.6781,145.4688 C230.6781,145.0313 230.6625,144.9063 230.5688,144.75 C230.4125,144.4844 230.1313,144.3438 229.8344,144.3438 C229.5375,144.3438 229.3344,144.4375 229.1156,144.75 L228.9438,144.6719 Z " fill="#000000"/><text fill="#000000" font-family="sans-serif" font-size="12" lengthAdjust="spacing" textLength="43" x="246.4" y="153.1543">Invoice</text><line style="stroke:#A80036;stroke-width:1.5;" x1="186.5" x2="317.5" y1="165" y2="165"/><text fill="#000000" font-family="sans-serif" font-size="11" lengthAdjust="spacing" textLength="121" x="191.5" y="179.2104">Customer : Customer</text><text fill="#000000" font-family="sans-serif" font-size="11" lengthAdjust="spacing" textLength="98" x="191.5" y="192.0151">Clerk : Employee</text><!--MD5=[7421f545a0d8420c5bec41e74b387d9c]
class Employee--><rect fill="#FEFECE" filter="url(#f1wn576x8dqrjb)" height="40" id="Employee" style="stroke:#A80036;stroke-width:1.5;" width="92" x="269" y="259"/><ellipse cx="284" cy="275" fill="#ADD1B2" rx="11" ry="11" style="stroke:#A80036;stroke-width:1.0;"/><path d="M286.3438,270.6719 C285.4063,270.2344 284.8125,270.0938 283.9375,270.0938 C281.3125,270.0938 279.3125,272.1719 279.3125,274.8906 L279.3125,276.0156 C279.3125,278.5938 281.4219,280.4844 284.3125,280.4844 C285.5313,280.4844 286.6875,280.1875 287.4375,279.6406 C288.0156,279.2344 288.3438,278.7813 288.3438,278.3906 C288.3438,277.9375 287.9531,277.5469 287.4844,277.5469 C287.2656,277.5469 287.0625,277.625 286.875,277.8125 C286.4219,278.2969 286.4219,278.2969 286.2344,278.3906 C285.8125,278.6563 285.125,278.7813 284.3594,278.7813 C282.3125,278.7813 281.0156,277.6875 281.0156,275.9844 L281.0156,274.8906 C281.0156,273.1094 282.2656,271.7969 284,271.7969 C284.5781,271.7969 285.1875,271.9531 285.6563,272.2031 C286.1406,272.4844 286.3125,272.7031 286.4063,273.1094 C286.4688,273.5156 286.5,273.6406 286.6406,273.7656 C286.7813,273.9063 287.0156,274.0156 287.2344,274.0156 C287.5,274.0156 287.7656,273.875 287.9375,273.6563 C288.0469,273.5 288.0781,273.3125 288.0781,272.8906 L288.0781,271.4688 C288.0781,271.0313 288.0625,270.9063 287.9688,270.75 C287.8125,270.4844 287.5313,270.3438 287.2344,270.3438 C286.9375,270.3438 286.7344,270.4375 286.5156,270.75 L286.3438,270.6719 Z " fill="#000000"/><text fill="#000000" font-family="sans-serif" font-size="12" lengthAdjust="spacing" textLength="60" x="298" y="279.1543">Employee</text><line style="stroke:#A80036;stroke-width:1.5;" x1="270" x2="360" y1="291" y2="291"/><!--MD5=[e927bc3f0361b2c4bbd0b6b840d09d3a]
class InvoiceItem--><rect codeLine="23" fill="#FEFECE" filter="url(#f1wn576x8dqrjb)" height="65.6094" id="InvoiceItem" style="stroke:#A80036;stroke-width:1.5;" width="105" x="130.5" y="7"/><ellipse cx="147.3" cy="23" fill="#ADD1B2" rx="11" ry="11" style="stroke:#A80036;stroke-width:1.0;"/><path d="M149.6438,18.6719 C148.7063,18.2344 148.1125,18.0938 147.2375,18.0938 C144.6125,18.0938 142.6125,20.1719 142.6125,22.8906 L142.6125,24.0156 C142.6125,26.5938 144.7219,28.4844 147.6125,28.4844 C148.8313,28.4844 149.9875,28.1875 150.7375,27.6406 C151.3156,27.2344 151.6438,26.7813 151.6438,26.3906 C151.6438,25.9375 151.2531,25.5469 150.7844,25.5469 C150.5656,25.5469 150.3625,25.625 150.175,25.8125 C149.7219,26.2969 149.7219,26.2969 149.5344,26.3906 C149.1125,26.6563 148.425,26.7813 147.6594,26.7813 C145.6125,26.7813 144.3156,25.6875 144.3156,23.9844 L144.3156,22.8906 C144.3156,21.1094 145.5656,19.7969 147.3,19.7969 C147.8781,19.7969 148.4875,19.9531 148.9563,20.2031 C149.4406,20.4844 149.6125,20.7031 149.7063,21.1094 C149.7688,21.5156 149.8,21.6406 149.9406,21.7656 C150.0813,21.9063 150.3156,22.0156 150.5344,22.0156 C150.8,22.0156 151.0656,21.875 151.2375,21.6563 C151.3469,21.5 151.3781,21.3125 151.3781,20.8906 L151.3781,19.4688 C151.3781,19.0313 151.3625,18.9063 151.2688,18.75 C151.1125,18.4844 150.8313,18.3438 150.5344,18.3438 C150.2375,18.3438 150.0344,18.4375 149.8156,18.75 L149.6438,18.6719 Z " fill="#000000"/><text fill="#000000" font-family="sans-serif" font-size="12" lengthAdjust="spacing" textLength="69" x="161.7" y="27.1543">InvoiceItem</text><line style="stroke:#A80036;stroke-width:1.5;" x1="131.5" x2="234.5" y1="39" y2="39"/><text fill="#000000" font-family="sans-serif" font-size="11" lengthAdjust="spacing" textLength="93" x="136.5" y="53.2104">Invoice : Invoice</text><text fill="#000000" font-family="sans-serif" font-size="11" lengthAdjust="spacing" textLength="83" x="136.5" y="66.0151">Article : Article</text><!--MD5=[5268ae8016db9d6fdaeb9723f385e7b5]
link Invoice to Customer--><path codeLine="20" d="M227.8546,209.5419 C227.8546,209.5419 212.777,236.1077 206.375,247.3877 " fill="none" id="Invoice-Customer" style="stroke:#A80036;stroke-width:1.0;"/><polygon fill="#A80036" points="199.881,258.8296,207.802,252.9765,202.3489,254.4811,200.8443,249.028,199.881,258.8296" style="stroke:#A80036;stroke-width:1.0;"/><line style="stroke:#A80036;stroke-width:1.0;" x1="202.3489" x2="206.2975" y1="254.4811" y2="247.5237"/><polygon fill="#FFFFFF" points="233.778,199.1058,227.3376,202.3494,227.8546,209.5419,234.295,206.2983,233.778,199.1058" style="stroke:#A80036;stroke-width:1.0;"/><!--MD5=[101dd2de9a891f31bd5baaf9b43ab3bc]
link Invoice to Employee--><path codeLine="21" d="M276.1454,209.5419 C276.1454,209.5419 291.223,236.1077 297.625,247.3877 " fill="none" id="Invoice-Employee" style="stroke:#A80036;stroke-width:1.0;"/><polygon fill="#A80036" points="304.119,258.8296,303.1557,249.028,301.6511,254.4811,296.198,252.9765,304.119,258.8296" style="stroke:#A80036;stroke-width:1.0;"/><line style="stroke:#A80036;stroke-width:1.0;" x1="301.6511" x2="297.7025" y1="254.4811" y2="247.5237"/><polygon fill="#FFFFFF" points="270.222,199.1058,269.705,206.2983,276.1454,209.5419,276.6624,202.3494,270.222,199.1058" style="stroke:#A80036;stroke-width:1.0;"/><!--MD5=[40b2ef578212a06d40cd1ed01a69cc58]
link InvoiceItem to Invoice--><path codeLine="27" d="M206.784,83.7418 C206.784,83.7418 221.189,109.629 227.777,121.468 " fill="none" id="InvoiceItem-Invoice" style="stroke:#A80036;stroke-width:1.0;"/><polygon fill="#A80036" points="234.141,132.906,233.261,123.0965,231.7102,128.5367,226.27,126.9859,234.141,132.906" style="stroke:#A80036;stroke-width:1.0;"/><line style="stroke:#A80036;stroke-width:1.0;" x1="231.7102" x2="227.82" y1="128.5367" y2="121.546"/><polygon fill="#FFFFFF" points="200.949,73.256,200.3712,80.4439,206.784,83.7418,207.3618,76.5539,200.949,73.256" style="stroke:#A80036;stroke-width:1.0;"/><!--MD5=[5c17e6865772fb3902065ad98e7ae36d]
link InvoiceItem to Article--><path codeLine="28" d="M159.5416,83.7781 C159.5416,83.7781 140.153,119.132 131.989,134.02 " fill="none" id="InvoiceItem-Article" style="stroke:#A80036;stroke-width:1.0;"/><polygon fill="#A80036" points="125.606,145.659,133.4404,139.6906,128.0099,141.2748,126.4257,135.8443,125.606,145.659" style="stroke:#A80036;stroke-width:1.0;"/><line style="stroke:#A80036;stroke-width:1.0;" x1="128.0099" x2="131.8575" y1="141.2748" y2="134.2605"/><polygon fill="#FFFFFF" points="165.311,73.256,158.9189,76.5939,159.5416,83.7781,165.9337,80.4402,165.311,73.256" style="stroke:#A80036;stroke-width:1.0;"/><!--MD5=[bae4ae33b29023c43b797e73fbf2f949]
@startuml
hide empty methods
class Company {

}

class Customer {

}


class Article {

}

class Invoice {
    Customer : Customer
    Clerk : Employee
}

Invoice o- -> Customer
Invoice o- -> Employee

class InvoiceItem {
    Invoice : Invoice
    Article : Article
}
InvoiceItem o- -> Invoice
InvoiceItem o- -> Article
@enduml

PlantUML version 1.2021.13beta8(Unknown compile time)
(GPL source distribution)
Java Runtime: Java(TM) SE Runtime Environment
JVM: Java HotSpot(TM) 64-Bit Server VM
Default Encoding: UTF-8
Language: en
Country: US
--></g></svg>