<?xml version="1.0" encoding="UTF-8" standalone="no"?><svg xmlns="http://www.w3.org/2000/svg" xmlns:xlink="http://www.w3.org/1999/xlink" contentScriptType="application/ecmascript" contentStyleType="text/css" height="466px" preserveAspectRatio="none" style="width:552px;height:466px;background:#FFFFFF;" version="1.1" viewBox="0 0 552 466" width="552px" zoomAndPan="magnify"><defs><filter height="300%" id="ftvr3245snsm9" width="300%" x="-1" y="-1"><feGaussianBlur result="blurOut" stdDeviation="2.0"/><feColorMatrix in="blurOut" result="blurOut2" type="matrix" values="0 0 0 0 0 0 0 0 0 0 0 0 0 0 0 0 0 0 .4 0"/><feOffset dx="4.0" dy="4.0" in="blurOut2" result="blurOut3"/><feBlend in="SourceGraphic" in2="blurOut3" mode="normal"/></filter></defs><g><!--MD5=[d6181cb537bdc20c0a3007a98a56832d]
class Student--><rect codeLine="3" fill="#FEFECE" filter="url(#ftvr3245snsm9)" height="104.0234" id="Student" style="stroke:#A80036;stroke-width:1.5;" width="113" x="7" y="190.5"/><ellipse cx="37.75" cy="206.5" fill="#ADD1B2" rx="11" ry="11" style="stroke:#A80036;stroke-width:1.0;"/><path d="M40.0938,202.1719 C39.1563,201.7344 38.5625,201.5938 37.6875,201.5938 C35.0625,201.5938 33.0625,203.6719 33.0625,206.3906 L33.0625,207.5156 C33.0625,210.0938 35.1719,211.9844 38.0625,211.9844 C39.2813,211.9844 40.4375,211.6875 41.1875,211.1406 C41.7656,210.7344 42.0938,210.2813 42.0938,209.8906 C42.0938,209.4375 41.7031,209.0469 41.2344,209.0469 C41.0156,209.0469 40.8125,209.125 40.625,209.3125 C40.1719,209.7969 40.1719,209.7969 39.9844,209.8906 C39.5625,210.1563 38.875,210.2813 38.1094,210.2813 C36.0625,210.2813 34.7656,209.1875 34.7656,207.4844 L34.7656,206.3906 C34.7656,204.6094 36.0156,203.2969 37.75,203.2969 C38.3281,203.2969 38.9375,203.4531 39.4063,203.7031 C39.8906,203.9844 40.0625,204.2031 40.1563,204.6094 C40.2188,205.0156 40.25,205.1406 40.3906,205.2656 C40.5313,205.4063 40.7656,205.5156 40.9844,205.5156 C41.25,205.5156 41.5156,205.375 41.6875,205.1563 C41.7969,205 41.8281,204.8125 41.8281,204.3906 L41.8281,202.9688 C41.8281,202.5313 41.8125,202.4063 41.7188,202.25 C41.5625,201.9844 41.2813,201.8438 40.9844,201.8438 C40.6875,201.8438 40.4844,201.9375 40.2656,202.25 L40.0938,202.1719 Z " fill="#000000"/><text fill="#000000" font-family="sans-serif" font-size="12" lengthAdjust="spacing" textLength="46" x="55.25" y="210.6543">Student</text><line style="stroke:#A80036;stroke-width:1.5;" x1="8" x2="119" y1="222.5" y2="222.5"/><text fill="#000000" font-family="sans-serif" font-size="11" lengthAdjust="spacing" textLength="47" x="13" y="236.7104">Id : Guid</text><text fill="#000000" font-family="sans-serif" font-size="11" lengthAdjust="spacing" textLength="98" x="13" y="249.5151">Firstname : string</text><text fill="#000000" font-family="sans-serif" font-size="11" lengthAdjust="spacing" textLength="98" x="13" y="262.3198">Lastname : string</text><text fill="#000000" font-family="sans-serif" font-size="11" lengthAdjust="spacing" textLength="73" x="13" y="275.1245">Email : string</text><text fill="#000000" font-family="sans-serif" font-size="11" lengthAdjust="spacing" textLength="101" x="13" y="287.9292">Username : string</text><!--MD5=[fd8f06804651a767af6d5ee4693cdfe7]
class Coach--><rect codeLine="11" fill="#FEFECE" filter="url(#ftvr3245snsm9)" height="52.8047" id="Coach" style="stroke:#A80036;stroke-width:1.5;" width="89" x="43" y="380"/><ellipse cx="67" cy="396" fill="#ADD1B2" rx="11" ry="11" style="stroke:#A80036;stroke-width:1.0;"/><path d="M69.3438,391.6719 C68.4063,391.2344 67.8125,391.0938 66.9375,391.0938 C64.3125,391.0938 62.3125,393.1719 62.3125,395.8906 L62.3125,397.0156 C62.3125,399.5938 64.4219,401.4844 67.3125,401.4844 C68.5313,401.4844 69.6875,401.1875 70.4375,400.6406 C71.0156,400.2344 71.3438,399.7813 71.3438,399.3906 C71.3438,398.9375 70.9531,398.5469 70.4844,398.5469 C70.2656,398.5469 70.0625,398.625 69.875,398.8125 C69.4219,399.2969 69.4219,399.2969 69.2344,399.3906 C68.8125,399.6563 68.125,399.7813 67.3594,399.7813 C65.3125,399.7813 64.0156,398.6875 64.0156,396.9844 L64.0156,395.8906 C64.0156,394.1094 65.2656,392.7969 67,392.7969 C67.5781,392.7969 68.1875,392.9531 68.6563,393.2031 C69.1406,393.4844 69.3125,393.7031 69.4063,394.1094 C69.4688,394.5156 69.5,394.6406 69.6406,394.7656 C69.7813,394.9063 70.0156,395.0156 70.2344,395.0156 C70.5,395.0156 70.7656,394.875 70.9375,394.6563 C71.0469,394.5 71.0781,394.3125 71.0781,393.8906 L71.0781,392.4688 C71.0781,392.0313 71.0625,391.9063 70.9688,391.75 C70.8125,391.4844 70.5313,391.3438 70.2344,391.3438 C69.9375,391.3438 69.7344,391.4375 69.5156,391.75 L69.3438,391.6719 Z " fill="#000000"/><text fill="#000000" font-family="sans-serif" font-size="12" lengthAdjust="spacing" textLength="37" x="83" y="400.1543">Coach</text><line style="stroke:#A80036;stroke-width:1.5;" x1="44" x2="131" y1="412" y2="412"/><text fill="#000000" font-family="sans-serif" font-size="11" lengthAdjust="spacing" textLength="77" x="49" y="426.2104">Phone : string</text><!--MD5=[d0da0a299942266ebd64acf2b2e95fa4]
class Subject--><rect codeLine="17" fill="#FEFECE" filter="url(#ftvr3245snsm9)" height="91.2188" id="Subject" style="stroke:#A80036;stroke-width:1.5;" width="138" x="190.5" y="361"/><ellipse cx="232.95" cy="377" fill="#ADD1B2" rx="11" ry="11" style="stroke:#A80036;stroke-width:1.0;"/><path d="M235.2938,372.6719 C234.3563,372.2344 233.7625,372.0938 232.8875,372.0938 C230.2625,372.0938 228.2625,374.1719 228.2625,376.8906 L228.2625,378.0156 C228.2625,380.5938 230.3719,382.4844 233.2625,382.4844 C234.4813,382.4844 235.6375,382.1875 236.3875,381.6406 C236.9656,381.2344 237.2938,380.7813 237.2938,380.3906 C237.2938,379.9375 236.9031,379.5469 236.4344,379.5469 C236.2156,379.5469 236.0125,379.625 235.825,379.8125 C235.3719,380.2969 235.3719,380.2969 235.1844,380.3906 C234.7625,380.6563 234.075,380.7813 233.3094,380.7813 C231.2625,380.7813 229.9656,379.6875 229.9656,377.9844 L229.9656,376.8906 C229.9656,375.1094 231.2156,373.7969 232.95,373.7969 C233.5281,373.7969 234.1375,373.9531 234.6063,374.2031 C235.0906,374.4844 235.2625,374.7031 235.3563,375.1094 C235.4188,375.5156 235.45,375.6406 235.5906,375.7656 C235.7313,375.9063 235.9656,376.0156 236.1844,376.0156 C236.45,376.0156 236.7156,375.875 236.8875,375.6563 C236.9969,375.5 237.0281,375.3125 237.0281,374.8906 L237.0281,373.4688 C237.0281,373.0313 237.0125,372.9063 236.9188,372.75 C236.7625,372.4844 236.4813,372.3438 236.1844,372.3438 C235.8875,372.3438 235.6844,372.4375 235.4656,372.75 L235.2938,372.6719 Z " fill="#000000"/><text fill="#000000" font-family="sans-serif" font-size="12" lengthAdjust="spacing" textLength="45" x="253.05" y="381.1543">Subject</text><line style="stroke:#A80036;stroke-width:1.5;" x1="191.5" x2="327.5" y1="393" y2="393"/><text fill="#000000" font-family="sans-serif" font-size="11" lengthAdjust="spacing" textLength="47" x="196.5" y="407.2104">Id : Guid</text><text fill="#000000" font-family="sans-serif" font-size="11" lengthAdjust="spacing" textLength="55" x="196.5" y="420.0151">Term : int</text><text fill="#000000" font-family="sans-serif" font-size="11" lengthAdjust="spacing" textLength="76" x="196.5" y="432.8198">Name : string</text><text fill="#000000" font-family="sans-serif" font-size="11" lengthAdjust="spacing" textLength="126" x="196.5" y="445.6245">EducationType : string</text><!--MD5=[af8ed831b3fe9dbd380fec6c597723ab]
class Offer--><rect codeLine="24" fill="#FEFECE" filter="url(#ftvr3245snsm9)" height="116.8281" id="Offer" style="stroke:#A80036;stroke-width:1.5;" width="208" x="155.5" y="184"/><ellipse cx="239.75" cy="200" fill="#ADD1B2" rx="11" ry="11" style="stroke:#A80036;stroke-width:1.0;"/><path d="M242.0938,195.6719 C241.1563,195.2344 240.5625,195.0938 239.6875,195.0938 C237.0625,195.0938 235.0625,197.1719 235.0625,199.8906 L235.0625,201.0156 C235.0625,203.5938 237.1719,205.4844 240.0625,205.4844 C241.2813,205.4844 242.4375,205.1875 243.1875,204.6406 C243.7656,204.2344 244.0938,203.7813 244.0938,203.3906 C244.0938,202.9375 243.7031,202.5469 243.2344,202.5469 C243.0156,202.5469 242.8125,202.625 242.625,202.8125 C242.1719,203.2969 242.1719,203.2969 241.9844,203.3906 C241.5625,203.6563 240.875,203.7813 240.1094,203.7813 C238.0625,203.7813 236.7656,202.6875 236.7656,200.9844 L236.7656,199.8906 C236.7656,198.1094 238.0156,196.7969 239.75,196.7969 C240.3281,196.7969 240.9375,196.9531 241.4063,197.2031 C241.8906,197.4844 242.0625,197.7031 242.1563,198.1094 C242.2188,198.5156 242.25,198.6406 242.3906,198.7656 C242.5313,198.9063 242.7656,199.0156 242.9844,199.0156 C243.25,199.0156 243.5156,198.875 243.6875,198.6563 C243.7969,198.5 243.8281,198.3125 243.8281,197.8906 L243.8281,196.4688 C243.8281,196.0313 243.8125,195.9063 243.7188,195.75 C243.5625,195.4844 243.2813,195.3438 242.9844,195.3438 C242.6875,195.3438 242.4844,195.4375 242.2656,195.75 L242.0938,195.6719 Z " fill="#000000"/><text fill="#000000" font-family="sans-serif" font-size="12" lengthAdjust="spacing" textLength="31" x="260.25" y="204.1543">Offer</text><line style="stroke:#A80036;stroke-width:1.5;" x1="156.5" x2="362.5" y1="216" y2="216"/><text fill="#000000" font-family="sans-serif" font-size="11" lengthAdjust="spacing" textLength="47" x="161.5" y="230.2104">Id : Guid</text><text fill="#000000" font-family="sans-serif" font-size="11" lengthAdjust="spacing" textLength="93" x="161.5" y="243.0151">Teacher : Coach</text><text fill="#000000" font-family="sans-serif" font-size="11" lengthAdjust="spacing" textLength="97" x="161.5" y="255.8198">Subject : Subject</text><text fill="#000000" font-family="sans-serif" font-size="11" lengthAdjust="spacing" textLength="96" x="161.5" y="268.6245">From : DateTime</text><text fill="#000000" font-family="sans-serif" font-size="11" lengthAdjust="spacing" textLength="82" x="161.5" y="281.4292">To : DateTime</text><text fill="#000000" font-family="sans-serif" font-size="11" lengthAdjust="spacing" textLength="196" x="161.5" y="294.2339">Appointments: List&lt;Appointment&gt;</text><!--MD5=[d7b38bd3af68a2558e3c0c7f521e0dea]
class AppointmentState--><rect codeLine="36" fill="#FEFECE" filter="url(#ftvr3245snsm9)" height="91.2188" id="AppointmentState" style="stroke:#A80036;stroke-width:1.5;" width="139" x="399" y="197"/><ellipse cx="414" cy="213" fill="#EB937F" rx="11" ry="11" style="stroke:#A80036;stroke-width:1.0;"/><path d="M412.7969,213.875 L414.25,213.875 L414.25,213.9844 C414.25,214.3906 414.2813,214.5469 414.3594,214.7031 C414.5156,214.9531 414.7969,215.1094 415.0938,215.1094 C415.3438,215.1094 415.6094,214.9688 415.7656,214.75 C415.8906,214.5938 415.9219,214.4375 415.9219,213.9844 L415.9219,212.0625 C415.9219,211.9063 415.9219,211.8594 415.9063,211.7031 C415.8438,211.2344 415.5313,210.9219 415.0781,210.9219 C414.8281,210.9219 414.5625,211.0625 414.3906,211.2813 C414.2813,211.4531 414.25,211.6094 414.25,212.0625 L414.25,212.1875 L412.7969,212.1875 L412.7969,209.7813 L416.7813,209.7813 L416.7813,210.6406 C416.7813,211.0469 416.8125,211.2188 416.8906,211.375 C417.0625,211.625 417.3438,211.7813 417.625,211.7813 C417.8906,211.7813 418.1563,211.6406 418.3281,211.4219 C418.4375,211.25 418.4688,211.1094 418.4688,210.6406 L418.4688,208.0938 L410.8438,208.0938 C410.4063,208.0938 410.2813,208.1094 410.125,208.2031 C409.875,208.3594 409.7188,208.6563 409.7188,208.9375 C409.7188,209.2188 409.8594,209.4688 410.0781,209.6406 C410.2344,209.75 410.4219,209.7813 410.8438,209.7813 L411.0938,209.7813 L411.0938,216.2969 L410.8438,216.2969 C410.4375,216.2969 410.2813,216.3125 410.125,216.4219 C409.875,216.5938 409.7188,216.8594 409.7188,217.1563 C409.7188,217.4219 409.8594,217.6719 410.0781,217.8281 C410.2188,217.9531 410.4531,218 410.8438,218 L418.8438,218 L418.8438,215.4219 C418.8438,214.9844 418.8125,214.8438 418.7344,214.6875 C418.5625,214.4375 418.2813,214.2813 418,214.2813 C417.7344,214.2813 417.4688,214.3906 417.2969,214.6406 C417.1875,214.7969 417.1563,214.9375 417.1563,215.4219 L417.1563,216.2969 L412.7969,216.2969 L412.7969,213.875 Z " fill="#000000"/><text fill="#000000" font-family="sans-serif" font-size="12" lengthAdjust="spacing" textLength="107" x="428" y="217.1543">AppointmentState</text><line style="stroke:#A80036;stroke-width:1.5;" x1="400" x2="537" y1="229" y2="229"/><text fill="#000000" font-family="sans-serif" font-size="11" lengthAdjust="spacing" textLength="52" x="405" y="243.2104">AskedFor</text><text fill="#000000" font-family="sans-serif" font-size="11" lengthAdjust="spacing" textLength="59" x="405" y="256.0151">Confirmed</text><text fill="#000000" font-family="sans-serif" font-size="11" lengthAdjust="spacing" textLength="57" x="405" y="268.8198">Cancelled</text><text fill="#000000" font-family="sans-serif" font-size="11" lengthAdjust="spacing" textLength="57" x="405" y="281.6245">TookPlace</text><!--MD5=[c508b5b6bbe276ff5e2700b6641f837f]
class Appointment--><rect codeLine="43" fill="#FEFECE" filter="url(#ftvr3245snsm9)" height="116.8281" id="Appointment" style="stroke:#A80036;stroke-width:1.5;" width="158" x="180.5" y="7"/><ellipse cx="218" cy="23" fill="#ADD1B2" rx="11" ry="11" style="stroke:#A80036;stroke-width:1.0;"/><path d="M220.3438,18.6719 C219.4063,18.2344 218.8125,18.0938 217.9375,18.0938 C215.3125,18.0938 213.3125,20.1719 213.3125,22.8906 L213.3125,24.0156 C213.3125,26.5938 215.4219,28.4844 218.3125,28.4844 C219.5313,28.4844 220.6875,28.1875 221.4375,27.6406 C222.0156,27.2344 222.3438,26.7813 222.3438,26.3906 C222.3438,25.9375 221.9531,25.5469 221.4844,25.5469 C221.2656,25.5469 221.0625,25.625 220.875,25.8125 C220.4219,26.2969 220.4219,26.2969 220.2344,26.3906 C219.8125,26.6563 219.125,26.7813 218.3594,26.7813 C216.3125,26.7813 215.0156,25.6875 215.0156,23.9844 L215.0156,22.8906 C215.0156,21.1094 216.2656,19.7969 218,19.7969 C218.5781,19.7969 219.1875,19.9531 219.6563,20.2031 C220.1406,20.4844 220.3125,20.7031 220.4063,21.1094 C220.4688,21.5156 220.5,21.6406 220.6406,21.7656 C220.7813,21.9063 221.0156,22.0156 221.2344,22.0156 C221.5,22.0156 221.7656,21.875 221.9375,21.6563 C222.0469,21.5 222.0781,21.3125 222.0781,20.8906 L222.0781,19.4688 C222.0781,19.0313 222.0625,18.9063 221.9688,18.75 C221.8125,18.4844 221.5313,18.3438 221.2344,18.3438 C220.9375,18.3438 220.7344,18.4375 220.5156,18.75 L220.3438,18.6719 Z " fill="#000000"/><text fill="#000000" font-family="sans-serif" font-size="12" lengthAdjust="spacing" textLength="76" x="237" y="27.1543">Appointment</text><line style="stroke:#A80036;stroke-width:1.5;" x1="181.5" x2="337.5" y1="39" y2="39"/><text fill="#000000" font-family="sans-serif" font-size="11" lengthAdjust="spacing" textLength="47" x="186.5" y="53.2104">Id : Guid</text><text fill="#000000" font-family="sans-serif" font-size="11" lengthAdjust="spacing" textLength="69" x="186.5" y="66.0151">Offer : Offer</text><text fill="#000000" font-family="sans-serif" font-size="11" lengthAdjust="spacing" textLength="101" x="186.5" y="78.8198">Student : Student</text><text fill="#000000" font-family="sans-serif" font-size="11" lengthAdjust="spacing" textLength="96" x="186.5" y="91.6245">Date : DateTime</text><text fill="#000000" font-family="sans-serif" font-size="11" lengthAdjust="spacing" textLength="95" x="186.5" y="104.4292">Location : string?</text><text fill="#000000" font-family="sans-serif" font-size="11" lengthAdjust="spacing" textLength="146" x="186.5" y="117.2339">State : AppointmentState</text><!--MD5=[0c44a954cfd6e42c24c299bcfc5940dc]
reverse link Student to Coach--><path codeLine="15" d="M74.0498,314.711 C77.4941,337.96 81.1001,362.3006 83.7104,379.92 " fill="none" id="Student-backto-Coach" style="stroke:#A80036;stroke-width:1.0;"/><polygon fill="none" points="67.1004,315.568,71.0938,294.758,80.9492,313.516,67.1004,315.568" style="stroke:#A80036;stroke-width:1.0;"/><!--MD5=[5e57e5d8071ab0322890c08f88df4bd6]
link Offer to Coach--><path codeLine="33" d="M189.639,309.298 C189.639,309.298 143.247,352.9937 124.439,370.7085 " fill="none" id="Offer-Coach" style="stroke:#A80036;stroke-width:1.0;"/><polygon fill="#A80036" points="114.79,379.7971,124.0839,376.5377,118.4296,376.3687,118.5985,370.7144,114.79,379.7971" style="stroke:#A80036;stroke-width:1.0;"/><line style="stroke:#A80036;stroke-width:1.0;" x1="118.4296" x2="124.253" y1="376.3687" y2="370.8839"/><polygon fill="#FFFFFF" points="198.375,301.071,191.2647,302.2725,189.639,309.298,196.7493,308.0965,198.375,301.071" style="stroke:#A80036;stroke-width:1.0;"/><!--MD5=[55534d2f0f1788fda48d7d76f37178b8]
link Offer to Subject--><path codeLine="34" d="M259.5,313.071 C259.5,313.071 259.5,336.736 259.5,347.542 " fill="none" id="Offer-Subject" style="stroke:#A80036;stroke-width:1.0;"/><polygon fill="#A80036" points="259.5,360.8442,263.5,351.8442,259.5,355.8442,255.5,351.8442,259.5,360.8442" style="stroke:#A80036;stroke-width:1.0;"/><line style="stroke:#A80036;stroke-width:1.0;" x1="259.5" x2="259.5" y1="355.8442" y2="347.844"/><polygon fill="#FFFFFF" points="259.5,301.071,255.5,307.071,259.5,313.071,263.5,307.071,259.5,301.071" style="stroke:#A80036;stroke-width:1.0;"/><!--MD5=[1d6291dcadfe03fcba5cbd9b1b4aeca3]
link Appointment to Offer--><path codeLine="52" d="M259.5,129.716 C259.5,145.576 259.5,162.593 259.5,178.446 " fill="none" id="Appointment-Offer" style="stroke:#A80036;stroke-width:1.0;"/><polygon fill="#A80036" points="259.5,183.774,263.5,174.774,259.5,178.774,255.5,174.774,259.5,183.774" style="stroke:#A80036;stroke-width:1.0;"/><polygon fill="#A80036" points="259.5,124.287,255.5,133.287,259.5,129.287,263.5,133.287,259.5,124.287" style="stroke:#A80036;stroke-width:1.0;"/><!--MD5=[34d40edeb05a6798771e9b0164f64971]
link Appointment to Student--><path codeLine="53" d="M186.0999,132.0364 C186.0999,132.0364 147.63,166.384 129.802,182.301 " fill="none" id="Appointment-Student" style="stroke:#A80036;stroke-width:1.0;"/><polygon fill="#A80036" points="120.077,190.985,129.4547,187.9752,123.8069,187.6551,124.1269,182.0073,120.077,190.985" style="stroke:#A80036;stroke-width:1.0;"/><line style="stroke:#A80036;stroke-width:1.0;" x1="123.8069" x2="129.774" y1="187.6551" y2="182.327"/><polygon fill="#FFFFFF" points="195.051,124.044,187.9113,125.0565,186.0999,132.0364,193.2396,131.0239,195.051,124.044" style="stroke:#A80036;stroke-width:1.0;"/><!--MD5=[96f5603ee1c981a659df8a72195f7bc6]
link Appointment to AppointmentState--><path codeLine="54" d="M337.4246,131.7479 C337.4246,131.7479 384.136,170.861 405.198,188.496 " fill="none" id="Appointment-AppointmentState" style="stroke:#A80036;stroke-width:1.0;"/><polygon fill="#A80036" points="415.305,196.959,410.9725,188.1143,411.4714,193.7491,405.8366,194.248,415.305,196.959" style="stroke:#A80036;stroke-width:1.0;"/><line style="stroke:#A80036;stroke-width:1.0;" x1="411.4714" x2="405.338" y1="193.7491" y2="188.6135"/><polygon fill="#FFFFFF" points="328.224,124.044,330.2563,130.9628,337.4246,131.7479,335.3922,124.8291,328.224,124.044" style="stroke:#A80036;stroke-width:1.0;"/><!--MD5=[2ffe4b69556fb7fa08d32dc3eb74342b]
@startuml
hide empty methods

class Student {
    Id : Guid
    Firstname : string
    Lastname : string
    Email : string
    Username : string
}

class Coach {
    Phone : string
}

Coach -up-|> Student

class Subject {
    Id : Guid
    Term : int
    Name : string
    EducationType : string
}

class Offer {
    Id : Guid
    Teacher : Coach
    Subject : Subject
    From : DateTime
    To : DateTime
    Appointments: List<Appointment>
}

Offer o- -> Coach
Offer o- -> Subject

enum AppointmentState {
    AskedFor
    Confirmed
    Cancelled
    TookPlace
}

class Appointment {
    Id : Guid
    Offer : Offer
    Student : Student
    Date : DateTime
    Location : string?
    State : AppointmentState
}

Appointment <- -> Offer
Appointment o- -> Student
Appointment o- -> AppointmentState
@enduml

PlantUML version 1.2021.13beta8(Unknown compile time)
(GPL source distribution)
Java Runtime: Java(TM) SE Runtime Environment
JVM: Java HotSpot(TM) 64-Bit Server VM
Default Encoding: UTF-8
Language: en
Country: US
--></g></svg>